<?xml version="1.0" standalone="no"?><!DOCTYPE svg PUBLIC "-//W3C//DTD SVG 1.1//EN" "http://www.w3.org/Graphics/SVG/1.1/DTD/svg11.dtd"><svg t="1640788758425" class="icon" viewBox="0 0 1024 1024" version="1.1" xmlns="http://www.w3.org/2000/svg" p-id="1298" xmlns:xlink="http://www.w3.org/1999/xlink" width="200" height="200"><defs><style type="text/css"></style></defs><path d="M62 62h900v900H62z" fill="#FFFFFF" fill-opacity=".01" p-id="1299"></path><path d="M769.14285752 536.10714248a192.85714248 192.85714248 0 1 1 0 385.71428584 192.85714248 192.85714248 0 0 1 0-385.71428584zM537.58571416 100.76428584l288.19285752 30.02142832a32.14285752 32.14285752 0 0 1 28.67142832 28.60714336l30.02142832 288.19285664a32.14285752 32.14285752 0 0 1-9.25714248 26.03571416l-14.65714336 14.7214292a257.14285752 257.14285752 0 0 0-331.84285664 331.84285664l-63.38571416 63.32142832a32.14285752 32.14285752 0 0 1-45.45 0L101.66428584 565.35714248a32.14285752 32.14285752 0 0 1 0-45.45L511.55 109.95714248a32.14285752 32.14285752 0 0 1 26.03571416-9.19285664zM769.14285752 600.39285752a32.14285752 32.14285752 0 0 0-31.62857168 26.35714248l-0.51428584 5.78571416v64.28571416h-64.28571416a32.14285752 32.14285752 0 0 0-5.78571416 63.7714292l5.78571416 0.51428496h64.28571416v64.28571504a32.14285752 32.14285752 0 0 0 63.77142833 5.78571416l0.51428583-5.78571416v-64.28571504h64.28571417a32.14285752 32.14285752 0 0 0 5.78571415-63.77142832l-5.78571415-0.51428584h-64.28571417v-64.28571416a32.14285752 32.14285752 0 0 0-32.14285664-32.14285664zM624.69285752 269.64285752a64.28571416 64.28571416 0 1 0 90.96428496 90.9A64.28571416 64.28571416 0 0 0 624.69285752 269.64285752z" fill="#17abe3" p-id="1300"></path></svg>