<?xml version="1.0" standalone="no"?><!DOCTYPE svg PUBLIC "-//W3C//DTD SVG 1.1//EN" "http://www.w3.org/Graphics/SVG/1.1/DTD/svg11.dtd"><svg t="1640410823148" class="icon" viewBox="0 0 1024 1024" version="1.1" xmlns="http://www.w3.org/2000/svg" p-id="3250" xmlns:xlink="http://www.w3.org/1999/xlink" width="200" height="200"><defs><style type="text/css"></style></defs><path d="M507.0848 513.20149333m-480.8704 0a480.8704 480.8704 0 1 0 961.7408 0 480.8704 480.8704 0 1 0-961.7408 0Z" fill="#C65EDB" p-id="3251"></path><path d="M795.66165333 487.26016V348.65152h-239.80714666v138.55402667c0 62.04074667 42.87146667 113.48650667 99.28704 123.75381333v128.23210667h-52.26496c-11.41418667 0-20.64384 10.15808-20.64384 22.71914666s9.22965333 22.71914667 20.64384 22.71914667h145.8176c11.41418667 0 20.64384-10.15808 20.64384-22.71914667s-9.22965333-22.71914667-20.64384-22.71914666h-52.26496v-128.23210667c56.36096-10.21269333 99.23242667-61.71306667 99.23242666-123.6992zM451.92533333 354.54976V197.64565333c0-13.98101333-10.59498667-25.28597333-23.64757333-25.28597333h-95.57333333c-13.05258667 0-23.64757333 11.30496-23.64757334 25.28597333v156.90410667c-45.54752 26.97898667-76.45866667 78.91626667-76.45866666 138.39018667v265.74848c0 40.35925333 30.69269333 73.18186667 68.37589333 73.18186666h158.9248c37.73781333 0 68.37589333-32.82261333 68.37589333-73.18186666V492.93994667c0.10922667-59.52853333-30.80192-111.4112-76.34944-138.39018667z m-126.32064 240.29866667c0 15.07328-11.41418667 27.30666667-25.55904 27.30666666s-25.55904-12.23338667-25.55904-27.30666666v-122.33386667c0-15.07328 11.41418667-27.30666667 25.55904-27.30666667s25.55904 12.23338667 25.55904 27.30666667v122.33386667z" fill="#FFFFFF" p-id="3252"></path></svg>