<?xml version="1.0" standalone="no"?><!DOCTYPE svg PUBLIC "-//W3C//DTD SVG 1.1//EN" "http://www.w3.org/Graphics/SVG/1.1/DTD/svg11.dtd"><svg t="1641700253996" class="icon" viewBox="0 0 1024 1024" version="1.1" xmlns="http://www.w3.org/2000/svg" p-id="3435" xmlns:xlink="http://www.w3.org/1999/xlink" width="200" height="200"><defs><style type="text/css"></style></defs><path d="M56.5765625 513.1259375a450.815625 450.815625 0 1 0 901.63125 0 450.815625 450.815625 0 1 0-901.63125 0z" fill="#C65EDB" p-id="3436"></path><path d="M777.933125 488.80625V358.86125H553.1140625v129.894375c0 58.1625 40.1915625 106.393125 93.0815625 116.0184375v120.2175h-48.9984375c-10.7015625 0-19.35375 9.5240625-19.35375 21.3s8.653125 21.2990625 19.35375 21.2990625h136.7034375c10.700625 0 19.35375-9.523125 19.35375-21.3s-8.653125-21.2990625-19.35375-21.2990625H684.903125V604.775c52.8384375-9.57375 93.0309375-57.8559375 93.0309375-115.9678125zM455.6796875 364.390625V217.293125c0-13.1071875-9.9328125-23.705625-22.1690625-23.705625h-89.600625c-12.23625 0-22.1690625 10.5984375-22.1690625 23.705625V364.390625c-42.70125 25.2928125-71.6803125 73.98375-71.6803125 129.740625v249.13875c0 37.8375 28.7746875 68.608125 64.1025 68.608125H463.15625c35.379375 0 64.1025-30.770625 64.1025-68.608125V494.13125c0.1021875-55.8084375-28.876875-104.4478125-71.578125-129.740625z m-118.425 225.279375c0 14.131875-10.700625 25.6003125-23.9625 25.6003125s-23.960625-11.4684375-23.960625-25.6003125V474.9828125c0-14.131875 10.700625-25.6003125 23.9615625-25.6003125s23.9615625 11.4684375 23.9615625 25.6003125v114.6871875z" fill="#FFFFFF" p-id="3437"></path></svg>