<?xml version="1.0" standalone="no"?><!DOCTYPE svg PUBLIC "-//W3C//DTD SVG 1.1//EN" "http://www.w3.org/Graphics/SVG/1.1/DTD/svg11.dtd"><svg t="1641700326586" class="icon" viewBox="0 0 1024 1024" version="1.1" xmlns="http://www.w3.org/2000/svg" p-id="4863" xmlns:xlink="http://www.w3.org/1999/xlink" width="200" height="200"><defs><style type="text/css"></style></defs><path d="M512.001875 62.3046875C263.6375 62.3046875 62.3046875 263.6421875 62.3046875 512c0 248.3596875 201.3384375 449.6953125 449.6971875 449.6953125 248.360625 0 449.6934375-201.335625 449.6934375-449.6953125 0-248.35874999-201.3328125-449.6953125-449.6934375-449.6953125zM348.351875 167.028125c3.7809375-2.698125 8.0925-3.7715625 12.9421875-3.2409375 4.850625 0.538125 9.9703125 1.6171875 15.3740625 3.2409375a1000.5909375 1000.5909375 0 0 1 15.7575 4.86562501c5.105625 1.6171875 9.826875 1.8825 14.1590625 0.79781249 7.550625-1.62374999 13.2103125-4.4484375 16.97156251-8.488125 3.76125001-4.036875 10.2346875-9.024375 19.41093749-14.9578125 7.003125-4.3125 14.8153125-5.7975 23.446875-4.453125 8.6259375 1.348125 15.0946875 4.1784375 19.4109375 8.49375001 2.1534375 2.68875001 4.4484375 4.98374999 6.88125001 6.88124999a74.9559375 74.9559375 0 0 0 7.68937499 5.251875 49.6640625 49.6640625 0 0 0 8.895 5.66437501l0.054375 0.03c1.08375001 0 2.4328125-0.5446875 4.036875-1.63312501 3.2465625-2.1534375 7.55625001-5.934375 12.9421875-11.33437499 6.46875001-5.934375 12.94125001-10.2496875 19.4053125-12.9375 6.4725-2.6925 15.09375001-1.8778125 25.8834375 2.43187499 5.4 1.62374999 9.7096875 3.91875001 12.935625 6.886875 3.2278125 2.9671875 6.3225 5.7965625 9.294375 8.488125a49.603125 49.603125 0 0 0 9.699375 6.88125c3.5071875 1.899375 7.9546875 2.840625 13.3546875 2.82 5.4-0.015 9.9796875-0.8240625 13.7409375-2.4328125a350.585625 350.585625 0 0 1 10.921875-4.4521875c3.5203125-1.359375 7.021875-2.3015625 10.5046875-2.81625 3.4865625-0.519375 7.665 0.0196875 12.525 1.629375 5.40374999 2.158125 9.046875 5.2528125 10.9265625 9.2896875 1.87874999 4.040625 2.4225 8.2153125 1.6275 12.525-0.793125 4.31625001-2.68125001 8.625-5.668125 12.9375-2.98125001 4.3153125-6.6215625 7.816875-10.9171875 10.509375-10.2496875 6.46875001-18.065625 13.08-23.4515625 19.8234375-5.3784375 6.7434375-10.7690625 13.8890625-16.17375 21.4265625a546.5175 546.5175 0 0 0-8.900625 12.9375 202.2046875 202.2046875 0 0 0-8.9015625 14.570625 183.0928125 183.0928125 0 0 1-10.50375 16.978125H425.21375001a555.99375001 555.99375001 0 0 0-11.33437501-18.60656249 275.88375001 275.88375001 0 0 0-10.509375-16.17468751c-3.755625-5.3803125-6.991875-10.239375-9.7003125-14.570625-5.398125-8.0925-11.4646875-15.2371875-18.193125-21.4265625-6.7284375-6.195-13.335-11.72625001-19.8225-16.5909375-7.00874999-4.845-11.8584375-11.45625001-14.5696875-19.81875-2.7084375-8.371875-0.285-15.511875 7.2684375-21.4265625z m443.2528125 515.99062501c-4.845 26.968125-14.4121875 52.44375001-28.6978125 76.425-14.2865625 23.9765625-33.2896875 44.863125-57.009375 62.67187499-23.728125 17.8078125-51.89625001 31.96124999-84.525 42.465-32.62125001 10.509375-69.68625001 15.763125-111.195 15.76312501-42.5971875 0-80.3390625-6.0665625-113.22-18.18937501-32.8875-12.133125-60.778125-27.9009375-83.694375-47.3071875-22.9115625-19.411875-41.101875-41.1178125-54.5784375-65.1140625-13.471875-23.9971875-22.36875001-47.855625-26.683125-71.578125-4.845-26.415-5.5171875-51.76124999-2.015625-76.0321875 3.5025-24.2765625 9.8334375-47.0559375 18.99281251-68.345625 9.16125001-21.2896875 20.6165625-40.8346875 34.36874999-58.640625 13.7521875-17.803125 28.7090625-33.706875 44.8725-47.71875 14.0296875-12.4078125 26.7028125-24.129375 38.0165625-35.175 11.3184375-11.0390625 20.754375-21.1453125 28.3125-30.32625 9.1603125-10.250625 17.251875-19.95 24.27468751-29.1121875h181.95187499l-0.04875 0.04875c6.4640625 8.6315625 14.555625 18.061875 24.27 28.3125 8.0925 9.165 18.0665625 19.5384375 29.9146875 31.1315625 11.85375001 11.5996875 25.6040625 23.859375 41.25375 36.8025 12.935625 11.319375 26.285625 24.6590625 40.03125 40.03406251 13.753125 15.3703125 25.753125 33.3 35.99718751 53.77593749 10.2496875 20.475 17.390625 44.0596875 21.42656249 70.7484375 4.040625 26.68874999 3.36374999 56.4778125-2.015625 89.36062501z m-170.4065625 34.84968749h-74.67187499l1.15781249-39.69 75.82875-1.1578125c10.9059375 0.774375 18.684375-1.36875001 23.3371875-6.42 4.6546875-5.05124999 6.99375001-11.07375001 7.018125-18.0721875 0-6.2175-2.5246875-11.8621875-7.57687499-16.9153125-5.0503125-5.05124999-13.0303125-7.5778125-23.93625001-7.5778125h-75.82874999v-22.17656249c13.21875001-12.4425 25.27124999-24.5025 36.17906249-36.17437501a1964.775 1964.775 0 0 0 28.0021875-28.60125c9.3328125-9.740625 16.340625-16.546875 21.01875001-20.420625 17.895-15.5625 21.7940625-29.1825 11.68593749-40.8534375-5.4478125-6.99375001-12.46124999-10.4859375-21.01875-10.4859375-8.5565625 0-16.340625 3.1096875-23.3390625 9.3328125-3.8784375 3.103125-10.4896875 8.74874999-19.816875 16.9096875-9.3375 8.165625-18.675 16.5328125-28.0078125 25.096875a6341.7590625 6341.7590625 0 0 0-36.1771875 33.819375l-0.0740625-0.1078125-56.0090625-56.00625c-7.7878125-7.78875001-13.24125001-13.6303125-16.35-17.5096875-6.223125-5.4478125-14.3840625-9.9159375-24.49125-13.4034375-10.1071875-3.4875-18.669375-1.344375-25.6875 6.41906251-6.223125 8.5621875-7.7784375 16.92374999-4.66875 25.09031249 3.1096875 8.165625 6.61125001 14.5865625 10.490625 19.269375l17.5125 16.35a7148.9371875 7148.9371875 0 0 0 28.0021875 30.3525c11.67 12.4471875 24.4996875 25.674375 38.4975 39.6909375l-1.1578125 24.4921875h-79.3490625c-6.9890625 0-13.01624999 2.7215625-18.06656249 8.175-5.0559375 5.454375-7.5815625 11.289375-7.58156251 17.5125 0 6.2184375 2.34375001 11.671875 7.0228125 16.351875 4.6734375 4.68374999 10.90124999 7.018125 18.669375 7.018125h79.3340625v40.8478125h-79.3340625c-6.9975 0-13.02 2.143125-18.0721875 6.42-5.055 4.28625001-7.5759375 9.920625-7.57593749 16.9153125-0.78 6.2184375 1.363125 11.4703125 6.41812499 15.75656251 5.053125 4.2778125 11.476875 6.4209375 19.2646875 6.42093749h79.33875v23.34c0.77625001 10.90124999 4.2721875 18.478125 10.4953125 22.7353125 6.223125 4.2525 13.9959375 6.395625 23.334375 6.4190625 9.3365625 0.774375 16.90875001-2.1375 22.734375-8.7346875 5.83125001-6.59625001 8.739375-13.4090625 8.73937501-20.42062499v-23.34h81.68718749c7.794375 0 14.2171875-1.756875 19.2684375-5.26312501 5.0521875-3.5109375 7.1990625-9.151875 6.4246875-16.91437499-0.0009375-16.32375001-10.888125-24.4903125-32.671875-24.49031251z m0 0" fill="#E0620D" p-id="4864"></path></svg>