<?xml version="1.0" standalone="no"?><!DOCTYPE svg PUBLIC "-//W3C//DTD SVG 1.1//EN" "http://www.w3.org/Graphics/SVG/1.1/DTD/svg11.dtd"><svg t="1640410869257" class="icon" viewBox="0 0 1024 1024" version="1.1" xmlns="http://www.w3.org/2000/svg" p-id="3977" xmlns:xlink="http://www.w3.org/1999/xlink" width="200" height="200"><defs><style type="text/css"></style></defs><path d="M512.00191906 32.32521969c-264.92150344 0-479.67669937 214.75999312-479.67669937 479.67478031 0 264.91670625 214.76095219 479.67478031 479.67669937 479.67478031 264.91766625 0 479.67286219-214.75807406 479.67286219-479.67478031C991.67478031 247.08425281 776.91958437 32.32521969 512.00191906 32.32521969L512.00191906 32.32521969zM337.44251 144.02900469c4.03214625-2.87804906 8.63126813-4.02255281 13.80408094-3.45749625 5.17473187 0.57465 10.63534969 1.72587 16.39912125 3.45749625 5.75417906 1.72587 11.36253656 3.45749625 16.80780469 5.18912156 5.44622719 1.72587 10.48281281 2.00887781 15.10303968 0.8519025 8.05469906-1.73162625 14.09188594-4.7449425 18.10388531-9.05434125 4.01200031-4.30556063 10.91643844-9.62611312 20.70468188-15.95494219 7.46949563-4.59912187 15.80336531-6.1839675 25.01024344-4.74973969 9.20112188 1.438065 16.10076375 4.45713844 20.70468187 9.0600975 2.29668281 2.86749563 4.7449425 5.31575625 7.33902375 7.33998375 2.59504031 2.01943125 5.33110594 3.89208094 8.20243875 5.60164219 2.86749563 2.29668281 6.03143062 4.31611406 9.48892688 6.04198313l0.05756062 0.0326175c1.15601625 0 2.59504031-0.58136625 4.30556063-1.74217875 3.46325156-2.29668281 8.06045531-6.33074813 13.80504-12.0906825 6.89964188-6.32882906 13.80408094-10.93274719 20.69892656-13.79928375 6.90443906-2.87229281 16.10076375-2.00312156 27.60912094 2.59408125 5.75993438 1.73162625 10.35713812 4.17988594 13.79832469 7.34574 3.44310562 3.16489406 6.74422781 6.1830075 9.91391812 9.05434125 3.16489406 2.86749563 6.61183687 5.31575625 10.34658469 7.33998375 3.74050406 2.02518656 8.4844875 3.02962594 14.24442187 3.00756093 5.75993438-0.01630875 10.64494313-0.87876375 14.6569425-2.59504031 4.01295938-1.71052031 7.89448781-3.29536594 11.65034063-4.74878062 3.75489375-1.45053656 7.48964156-2.45497594 11.2052025-3.00372375 3.71843906-0.55450406 8.17557656 0.02110594 13.35894281 1.7373825 5.76473156 2.30243906 9.65105625 5.60356125 11.65609688 9.90912187 2.00312156 4.30939781 2.58352875 8.76269906 1.73546343 13.35990188-0.84614625 4.60391812-2.86078031 9.20112188-6.04582125 13.80024375-3.18024375 4.60295906-7.06273125 8.33770688-11.64554437 11.20999968-10.93274719 6.89964188-19.270455 13.95182062-25.01408063 21.14502375-5.73786937 7.19320313-11.48725125 14.81523562-17.25198281 22.854585-2.86749563 4.02830906-6.03718687 8.63222719-9.49468219 13.80024375-3.46325156 5.17281281-6.62239031 10.3533-9.49468218 15.5424225-3.45749625 6.32882906-7.19799938 12.36601594-11.20424344 18.10964157L419.42756375 281.21791063c-4.02639-6.89964188-8.05469906-13.518195-12.08876344-19.84702407-3.46325156-5.76569063-7.19224406-11.51411344-11.20999969-17.25294281-4.00720313-5.73882937-7.45894313-10.92219469-10.34754468-15.5424225-5.75801625-8.63126813-12.22882875-16.25234063-19.40668219-22.854585-7.17689437-6.60799969-14.22331688-12.50799937-21.14406469-17.69712094-7.47525187-5.16801562-12.64806469-12.22019438-15.54050343-21.1392675C326.801405 157.95396312 329.38589281 150.33768687 337.44251 144.02900469L337.44251 144.02900469zM810.24546969 694.41935937c-5.16801562 28.76609625-15.37357688 55.93871344-30.61188469 81.51881063-15.23830875 25.57625906-35.508405 47.85523406-60.81029062 66.85035563-25.30860094 18.99512156-55.35542906 34.092405-90.15871219 45.29664843-34.79656781 11.20999969-74.33232281 16.81356-118.60822406 16.81356-45.43767281 0-85.69485844-6.4708125-120.76867875-19.40188593-35.08053563-12.94162594-64.82996531-29.76094219-89.27323313-50.46082782-24.43942969-20.70564187-43.84227469-43.85858344-58.21716844-69.45498937-14.3700975-25.597365-23.8599825-51.04603125-28.4619825-76.35079406-5.16801562-28.1751375-5.88561-55.21152656-2.15086125-81.10053376 3.73666688-25.89476344 10.48952812-50.19316875 20.25954375-72.90193218 9.77193469-22.70876344 21.99117-43.55638875 36.659625-62.54959125 14.66941406-18.99032438 30.62339719-35.95450313 47.8648275-50.90020969 14.96489344-13.23518625 28.48212937-25.73838938 40.55074688-37.51920188 12.07245469-11.77601625 22.13795063-22.55622656 30.199365-32.34926718 9.77193469-10.93370719 18.40224281-21.28029187 25.89380437-31.05222657l194.0812125 0-0.05180531 0.05180532c6.89484563 9.20687812 15.52611375 19.26565781 25.88804813 30.20032406 8.63222719 9.77577188 19.27141406 20.84091 31.90892531 33.20692594 12.6442275 12.37273125 27.3117225 25.45058438 44.004405 39.25562437 13.79832469 12.07437375 28.03795031 26.30344594 42.70064906 42.70352719 14.66941406 16.394325 27.46905562 35.5199175 38.3960475 57.36046969 10.93274719 21.83959313 18.54998344 46.99661625 22.85554406 75.46531406C816.70572969 627.56900375 815.98333906 659.34362094 810.24546969 694.41935937L810.24546969 694.41935937zM628.47750781 731.59223656l-79.64903812 0 1.23468281-42.33609656 80.88372094-1.23468281c11.63307281 0.82600031 19.92952781-1.46013 24.89320218-6.84879656 4.96463438-5.3877075 7.46086125-11.81151187 7.48580438-19.27621032 0-6.63294281-2.69289375-12.65382094-8.08156031-18.04344656-5.3877075-5.3877075-13.89905625-8.08252031-25.53212907-8.08252031l-80.88372093 0 0-23.65564125c14.09860125-13.27164188 26.95580437-26.13556031 38.59079531-38.58599906 9.95421094-9.96476344 19.91417813-20.12907281 29.86838906-30.508275 9.95517-10.38975563 17.43042188-17.64915375 22.42095844-21.78203157 19.08721875-16.59962531 23.24599875-31.12705594 12.46482844-43.57653468-5.81173969-7.46086125-13.29274781-11.18505656-22.41999938-11.18505657-9.12725156 0-17.43042188 3.31743094-24.89512125 9.95517-4.137675 3.31071562-11.18889375 9.33159281-21.13830844 18.03673125-9.96092625 8.70993469-19.91993438 17.63476406-29.87510437 26.76969-11.62827563 10.77541406-24.491235 22.80277969-38.58887719 36.07442157l-0.07866656-0.11512219-59.74349438-59.74061625c-8.3070075-8.3070075-14.12354437-14.53798313-17.44001531-18.67661719-6.63774-5.81078062-15.3428775-10.57682906-26.12404781-14.29622719-10.78117031-3.72035719-19.91417813-1.43422781-27.3999825 6.8468775-6.63774 9.13300781-8.296455 18.05208094-4.97998313 26.76297469 3.31743094 8.70993469 7.05217875 15.55873125 11.18985282 20.55406406l18.67949531 17.44001532c9.13300781 9.96092625 19.08817781 20.75360906 29.86934812 32.37612937 12.44851969 13.27643813 26.13364125 27.38559281 41.06399907 42.33705563l-1.23468282 26.12404781-84.63861468 0c-7.455105 0-13.88466656 2.90299219-19.27141407 8.72048719-5.39250375 5.81749594-8.08731656 12.04175531-8.08731656 18.68045437 0 6.63294281 2.500065 12.45043875 7.49156063 17.44193438 4.98478031 4.99533281 11.62827563 7.48580437 19.91417812 7.48580437l84.62230594 0 0 43.57077938-84.62230594 0c-7.46469938 0-13.88850375 2.28613031-19.27717031 6.8478375-5.39250375 4.57225969-8.08156031 10.58258531-8.08156031 18.04344656-0.83175562 6.63294281 1.45437375 12.234585 6.8468775 16.80684469 5.38866656 4.56266625 12.24130031 6.84879656 20.54830781 6.84879656l84.62806219 0 0 24.89608031c0.82791844 11.62827563 4.55691 19.71079594 11.19560906 24.25139719 6.63774 4.535805 14.92843875 6.82193437 24.889365 6.8468775 9.95900813 0.82600031 18.03577219-2.28037406 24.25043812-9.31720313 6.22042219-7.03587 9.32199938-14.3029425 9.32199938-21.78203156l0-24.89608031 87.13292344 0c8.31372375 0 15.1653975-1.87360969 20.553105-5.61411375 5.38866656-3.74530031 7.67863406-9.76138219 6.85263375-18.0415275C663.32588094 740.30313031 651.712955 731.59223656 628.47750781 731.59223656L628.47750781 731.59223656zM628.47750781 731.59223656" fill="#e0620d" p-id="3978"></path></svg>