<?xml version="1.0" standalone="no"?><!DOCTYPE svg PUBLIC "-//W3C//DTD SVG 1.1//EN" "http://www.w3.org/Graphics/SVG/1.1/DTD/svg11.dtd"><svg t="1640786196151" class="icon" viewBox="0 0 1024 1024" version="1.1" xmlns="http://www.w3.org/2000/svg" p-id="1055" xmlns:xlink="http://www.w3.org/1999/xlink" width="200" height="200"><defs><style type="text/css"></style></defs><path d="M512 512m-450 0a450 450 0 1 0 900 0 450 450 0 1 0-900 0Z" fill="#8CA8E6" p-id="1056"></path><path d="M729.86428584 732.08214248H293.65357168A39.24642832 39.24642832 0 0 1 254.85714248 692.54642833v-137.21785665a100.92857168 100.92857168 0 0 0 67.05 25.45714248h379.67142919c24.68571416 0 48.56785752-9 67.05-25.45714248v137.18571416c0 21.85714248-17.45357168 39.56785752-38.76428583 39.56785664z m0-366.84642832h-105.10714336a113.27142832 113.27142832 0 0 0-113.01428496-109.92857168 113.27142832 113.27142832 0 0 0-113.01428584 109.92857168h-105.10714336c-21.31071416 0-38.76428584 17.74285752-38.76428584 39.53571416v81.70714336c0 18 6.94285752 34.93928584 19.76785752 47.53928584 12.6 12.85714248 29.57142832 20.025 47.53928584 20.025h379.67142832c17.74285752 0 34.93928584-7.16785752 47.53928584-20.025 12.6-12.85714248 19.51071416-29.79642833 19.51071416-47.53928584v-81.675c-0.25714248-21.85714248-17.71071416-39.53571416-39.02142832-39.53571416z m-218.12142832-75.27857168c42.10714248 0 76.82142832 33.65357168 78.62142832 75.27857168h-157.21071416a78.81428584 78.81428584 0 0 1 78.58928584-75.27857168z m0 208.86428584a34.71428584 34.71428584 0 0 1-34.39285752-34.93928584c0-19.28571416 15.39642833-34.93928584 34.39285752-34.93928496a34.71428584 34.71428584 0 0 1 34.425 34.93928496c0 19.28571416-15.42857168 34.93928584-34.39285752 34.93928584z" fill="#FFFFFF" p-id="1057"></path></svg>