<?xml version="1.0" standalone="no"?><!DOCTYPE svg PUBLIC "-//W3C//DTD SVG 1.1//EN" "http://www.w3.org/Graphics/SVG/1.1/DTD/svg11.dtd"><svg t="1641700258097" class="icon" viewBox="0 0 1024 1024" version="1.1" xmlns="http://www.w3.org/2000/svg" p-id="3578" xmlns:xlink="http://www.w3.org/1999/xlink" width="200" height="200"><defs><style type="text/css"></style></defs><path d="M62 512a450 450 0 1 0 900 0 450 450 0 1 0-900 0z" fill="#8CA8E6" p-id="3579"></path><path d="M729.864 732.082h-436.21a39.246 39.246 0 0 1-38.797-39.536V555.33a100.929 100.929 0 0 0 67.05 25.457H701.58c24.685 0 48.567-9 67.05-25.457v137.185c0 21.857-17.454 39.568-38.765 39.568z m0-366.846H624.757a113.271 113.271 0 0 0-113.014-109.929 113.271 113.271 0 0 0-113.014 109.929H293.62c-21.31 0-38.764 17.743-38.764 39.535v81.708c0 18 6.943 34.939 19.768 47.539 12.6 12.857 29.571 20.025 47.54 20.025h379.67c17.744 0 34.94-7.168 47.54-20.025 12.6-12.857 19.51-29.797 19.51-47.54v-81.674c-0.256-21.858-17.71-39.536-39.02-39.536z m-218.121-75.279c42.107 0 76.821 33.654 78.621 75.279h-157.21a78.814 78.814 0 0 1 78.589-75.279z m0 208.864a34.714 34.714 0 0 1-34.393-34.939c0-19.286 15.396-34.94 34.393-34.94a34.714 34.714 0 0 1 34.425 34.94c0 19.286-15.429 34.94-34.393 34.94z" fill="#FFFFFF" p-id="3580"></path></svg>