<?xml version="1.0" standalone="no"?><!DOCTYPE svg PUBLIC "-//W3C//DTD SVG 1.1//EN" "http://www.w3.org/Graphics/SVG/1.1/DTD/svg11.dtd"><svg t="1640410770530" class="icon" viewBox="0 0 1024 1024" version="1.1" xmlns="http://www.w3.org/2000/svg" p-id="2241" xmlns:xlink="http://www.w3.org/1999/xlink" width="200" height="200"><defs><style type="text/css"></style></defs><path d="M512 512m-475.03999969 0a475.03999969 475.03999969 0 1 0 950.07999938 0 475.03999969 475.03999969 0 1 0-950.07999938 0Z" fill="#eeb173" p-id="2242"></path><path d="M619.83999969 734.55999969z m198.08000062-317.11999969L687.51999969 257.6c-11.35999969-14.08000031-28.00000031-21.76000031-45.91999969-21.76000031h-8.32000031c-23.04 0-43.99999969 13.27999969-53.76 33.92000062-11.35999969 24.96-35.83999969 41.59999969-63.36 42.87999938-26.88-1.27999969-51.84-17.92000031-63.36-42.87999938-9.6-20.47999969-30.72-33.91999969-53.76-33.92000062h-7.68c-17.92000031 0-34.56 7.68-45.91999969 21.76000031l-129.6 159.84c-10.87999969 13.27999969-15.19999969 30.07999969-12.79999969 47.35999969 2.4 16.63999969 12.79999969 31.2 26.88 40.96000031l79.35999938 49.75999969v170.08000031c0 35.04 28.8 63.84 63.84 63.84h279.84c35.04 0 63.84-28.8 63.84-63.84V560.16000031l86.88-55.04000062c14.08000031-8.95999969 24.16000031-23.68000031 26.88-40.95999938 2.71999969-16.48000031-1.75999969-33.28000031-12.63999938-46.72000031z m-419.20000031-118.72000031c5.76-3.19999969 13.27999969-0.64000031 16.00000031 5.76 19.84000031 40.15999969 60 65.28 105.43999969 65.28 44.80000031 0 84.96-24.96 105.43999969-65.28 3.19999969-5.76 10.24000031-8.32000031 16.00000031-5.76 5.76 3.19999969 8.32000031 10.24000031 5.76 16.00000031-24.16000031 48.64000031-72.79999969 78.55999969-126.55999969 78.55999969-54.40000031 0-102.88000031-30.07999969-126.56000062-78.55999969-4.00000031-5.92000031-1.27999969-13.44 4.48000031-16.00000031z m253.75999969 428.00000062H373.76c-6.55999969 0-12.16000031-5.11999969-12.16000031-12.16000031 0-6.55999969 5.11999969-12.16000031 12.16000031-12.16000031h278.71999969c6.55999969 0 12.16000031 5.11999969 12.16000031 12.16000031 0 7.03999969-5.92000031 12.16000031-12.16000031 12.16000031z" fill="#FFFFFF" p-id="2243"></path></svg>