<?xml version="1.0" standalone="no"?><!DOCTYPE svg PUBLIC "-//W3C//DTD SVG 1.1//EN" "http://www.w3.org/Graphics/SVG/1.1/DTD/svg11.dtd"><svg t="1641700249455" class="icon" viewBox="0 0 1024 1024" version="1.1" xmlns="http://www.w3.org/2000/svg" p-id="3292" xmlns:xlink="http://www.w3.org/1999/xlink" width="200" height="200"><defs><style type="text/css"></style></defs><path d="M66.65 512a445.35 445.35 0 1 0 890.7 0 445.35 445.35 0 1 0-890.7 0z" fill="#EEB173" p-id="3293"></path><path d="M613.1 720.65z m185.7-297.3L676.55 273.5c-10.65-13.2-26.25-20.4-43.05-20.4h-7.8c-21.6 0-41.25 12.45-50.4 31.8-10.65 23.4-33.6 39-59.4 40.2-25.2-1.2-48.6-16.8-59.4-40.2-9-19.2-28.8-31.8-50.4-31.8h-7.2c-16.8 0-32.4 7.2-43.05 20.4l-121.5 149.85c-10.2 12.45-14.25 28.2-12 44.4 2.25 15.6 12 29.25 25.2 38.4l74.4 46.65V712.25c0 32.85 27 59.85 59.85 59.85h262.35c32.85 0 59.85-27 59.85-59.85V557.15l81.45-51.6c13.2-8.4 22.65-22.2 25.2-38.4 2.55-15.45-1.65-31.2-11.85-43.8z m-393-111.3c5.4-3 12.45-0.6 15 5.4 18.6 37.65 56.25 61.2 98.85 61.2 42 0 79.65-23.4 98.85-61.2 3-5.4 9.6-7.8 15-5.4 5.4 3 7.8 9.6 5.4 15-22.65 45.6-68.25 73.65-118.65 73.65-51 0-96.45-28.2-118.65-73.65-3.75-5.55-1.2-12.6 4.2-15z m237.9 401.25H382.4c-6.15 0-11.4-4.8-11.4-11.4 0-6.15 4.8-11.4 11.4-11.4h261.3c6.15 0 11.4 4.8 11.4 11.4s-5.55 11.4-11.4 11.4z" fill="#FFFFFF" p-id="3294"></path></svg>