<?xml version="1.0" standalone="no"?><!DOCTYPE svg PUBLIC "-//W3C//DTD SVG 1.1//EN" "http://www.w3.org/Graphics/SVG/1.1/DTD/svg11.dtd"><svg t="1641700369407" class="icon" viewBox="0 0 1024 1024" version="1.1" xmlns="http://www.w3.org/2000/svg" p-id="6295" xmlns:xlink="http://www.w3.org/1999/xlink" width="200" height="200"><defs><style type="text/css"></style></defs><path d="M62 512a450 450 0 1 0 900 0 450 450 0 1 0-900 0z" fill="#8CA8E6" p-id="6296"></path><path d="M370.025 348.007c12.857 0 23.24-8.743 23.24-19.446v-54.29c0-10.703-10.383-19.414-23.24-19.414s-23.207 8.679-23.207 19.414v54.29c0 10.703 10.414 19.446 23.207 19.446z m142.49 0c12.856 0 23.206-8.743 23.206-19.446v-54.29c0-10.703-10.414-19.414-23.207-19.414-12.857 0-23.239 8.679-23.239 19.414v54.29c0 10.703 10.382 19.446 23.24 19.446z m182.153-43.168c4.403 5.947 6.975 12.922 6.975 20.411 0 21.536-20.893 39.021-46.704 39.021s-46.703-17.453-46.703-39.021c0-7.49 2.571-14.464 6.975-20.41v-28.286h-63v28.285c4.403 5.947 6.975 12.922 6.975 20.411 0 21.536-20.893 39.021-46.672 39.021-25.81 0-46.735-17.453-46.735-39.021 0-7.49 2.571-14.464 6.975-20.41v-28.286h-63v28.285c4.371 5.947 6.975 12.922 6.975 20.411 0 21.536-20.925 39.021-46.736 39.021-25.779 0-46.64-17.485-46.64-39.021 0-7.49 2.572-14.464 6.943-20.41v-28.286h-11.153A32.143 32.143 0 0 0 287 308.696V737a32.143 32.143 0 0 0 32.464 32.143l385.715-3.954A32.143 32.143 0 0 0 737 733.046V308.664a32.143 32.143 0 0 0-32.143-32.143h-10.19v28.318zM361.989 635.204c0-12.375 10.029-22.372 22.404-22.372h255.214a22.371 22.371 0 0 1 0 44.743H384.393a22.371 22.371 0 0 1-22.372-22.371z m0-89.486c0-12.375 10.029-22.404 22.404-22.404h255.214a22.371 22.371 0 1 1 0 44.743H384.393a22.371 22.371 0 0 1-22.372-22.34z m0-89.518c0-12.343 10.029-22.371 22.404-22.371h255.214a22.371 22.371 0 0 1 0 44.742H384.393A22.371 22.371 0 0 1 362.02 456.2z m292.95-108.193c12.857 0 23.24-8.743 23.24-19.446v-54.29c0-10.703-10.383-19.414-23.24-19.414-12.825 0-23.207 8.679-23.207 19.414v54.29c0 10.703 10.382 19.446 23.207 19.446z" fill="#FFFFFF" p-id="6297"></path></svg>