<?xml version="1.0" standalone="no"?><!DOCTYPE svg PUBLIC "-//W3C//DTD SVG 1.1//EN" "http://www.w3.org/Graphics/SVG/1.1/DTD/svg11.dtd"><svg t="1640786410560" class="icon" viewBox="0 0 1024 1024" version="1.1" xmlns="http://www.w3.org/2000/svg" p-id="1117" xmlns:xlink="http://www.w3.org/1999/xlink" width="200" height="200"><defs><style type="text/css"></style></defs><path d="M512 512m-450 0a450 450 0 1 0 900 0 450 450 0 1 0-900 0Z" fill="#8CA8E6" p-id="1118"></path><path d="M370.025 348.00714248c12.85714248 0 23.23928584-8.74285752 23.23928584-19.44642832V274.27142833c0-10.70357168-10.38214248-19.41428584-23.23928584-19.41428585-12.85714248 0-23.20714248 8.67857168-23.20714248 19.41428584v54.28928584c0 10.70357168 10.41428584 19.44642832 23.20714248 19.44642832z m142.48928584 0c12.85714248 0 23.20714248-8.74285752 23.20714248-19.44642832V274.27142833c0-10.70357168-10.41428584-19.41428584-23.20714248-19.41428585-12.85714248 0-23.23928584 8.67857168-23.23928584 19.41428584v54.28928584c0 10.70357168 10.38214248 19.44642832 23.23928584 19.44642832z m182.15357168-43.16785664c4.40357168 5.94642832 6.975 12.92142833 6.975 20.41071416 0 21.53571416-20.89285752 39.02142833-46.70357168 39.02142832s-46.70357168-17.45357168-46.70357168-39.02142832c0-7.48928584 2.57142833-14.46428584 6.975-20.41071416v-28.28571416h-63v28.28571416c4.40357168 5.94642832 6.975 12.92142833 6.975 20.41071416 0 21.53571416-20.89285752 39.02142833-46.67142832 39.02142832-25.81071416 0-46.73571416-17.45357168-46.73571417-39.02142832 0-7.48928584 2.57142833-14.46428584 6.975-20.41071416v-28.28571416h-63v28.28571416c4.37142833 5.94642832 6.975 12.92142833 6.975 20.41071416 0 21.53571416-20.925 39.02142833-46.73571415 39.02142832-25.77857168 0-46.63928584-17.48571416-46.63928585-39.02142832 0-7.48928584 2.57142833-14.46428584 6.94285665-20.41071416v-28.28571416H319.14285752a32.14285752 32.14285752 0 0 0-32.14285752 32.14285664V737a32.14285752 32.14285752 0 0 0 32.46428584 32.14285752l385.71428583-3.95357168a32.14285752 32.14285752 0 0 0 31.82142833-32.14285752V308.66428584a32.14285752 32.14285752 0 0 0-32.14285752-32.14285752h-10.18928496v28.31785752zM361.98928584 635.20357168c0-12.375 10.02857168-22.37142833 22.40357168-22.3714292h255.21428496a22.37142833 22.37142833 0 0 1 0 44.74285752h-255.21428496a22.37142833 22.37142833 0 0 1-22.37142919-22.37142832z m0-89.48571416c0-12.375 10.02857168-22.40357167 22.40357168-22.40357168h255.21428496a22.37142833 22.37142833 0 1 1 0 44.74285664h-255.21428496a22.37142833 22.37142833 0 0 1-22.37142919-22.33928496z m0-89.51785752c0-12.34285752 10.02857168-22.37142833 22.40357168-22.37142832h255.21428496a22.37142833 22.37142833 0 0 1 0 44.74285664h-255.21428496a22.37142833 22.37142833 0 0 1-22.37142919-22.37142832z m292.95-108.19285752c12.85714248 0 23.23928584-8.74285752 23.23928584-19.44642832V274.27142833c0-10.70357168-10.38214248-19.41428584-23.23928584-19.41428585-12.825 0-23.20714248 8.67857168-23.20714336 19.41428584v54.28928584c0 10.70357168 10.38214248 19.44642832 23.20714336 19.44642832z" fill="#FFFFFF" p-id="1119"></path></svg>