<?xml version="1.0" standalone="no"?><!DOCTYPE svg PUBLIC "-//W3C//DTD SVG 1.1//EN" "http://www.w3.org/Graphics/SVG/1.1/DTD/svg11.dtd"><svg t="1640786414410" class="icon" viewBox="0 0 1024 1024" version="1.1" xmlns="http://www.w3.org/2000/svg" p-id="1264" xmlns:xlink="http://www.w3.org/1999/xlink" width="200" height="200"><defs><style type="text/css"></style></defs><path d="M512 512m-450 0a450 450 0 1 0 900 0 450 450 0 1 0-900 0Z" fill="#99D6F2" p-id="1265"></path><path d="M742.56071416 323.41785752c3.43928584 1.73571416 5.14285752 5.14285752 5.14285752 8.58214248V383.42857168a24.42857168 24.42857168 0 0 1-10.28571416 20.57142832c-5.14285752 5.14285752-11.98928584 6.84642832-20.57142919 6.84642832-5.14285752 0-10.28571416-1.70357167-15.42857081-3.40714248L530 321.71428584c-3.43928584-1.70357167-3.43928584-5.14285752-5.14285752-6.84642832-1.70357167-1.73571416 0-5.14285752 1.70357168-6.87857168l51.42857168-51.42857168C581.42857168 254.85714248 584.86785752 254.85714248 588.275 254.85714248l154.28571416 68.56071504z m-56.57142832 96.01071415l1.73571416 1.70357081a5.20714248 5.20714248 0 0 1 0 6.87857168c-12.02142832 20.57142832-29.15357167 53.13214248-54.86785752 94.275-37.70357168 60.01071416-87.42857168 80.58214248-108 87.42857168-1.70357167 0-3.43928584 0-5.14285664 1.70357168h-1.70357168l-66.85714248 41.14285664c-3.43928584 1.73571416-5.14285752 1.73571416-8.58214336 3.43928584a58.33928584 58.33928584 0 0 1-34.29642832 0c-1.70357167-1.70357167-5.14285752-1.70357167-6.84642832-3.43928584l-1.70357168-1.70357168c-1.73571416-1.70357167-3.43928584-1.70357167-5.14285752-3.43928496-1.73571416-1.70357167-3.43928584-5.14285752-5.14285664-6.8464292a37.47857167 37.47857167 0 0 1-5.14285752-8.58214248c-1.73571416 0-1.73571416-1.70357167-1.73571416-3.40714336 0-1.73571416-1.70357167-3.43928584-1.70357168-5.14285664-1.70357167-1.73571416-1.70357167-3.43928584-1.7035708-5.14285752v-10.28571416c1.70357167-3.43928584 1.70357167-5.14285752 1.7035708-8.58214249 3.43928584-11.98928584 8.58214248-22.275 18.86785752-29.15357167 6.84642832-5.14285752 20.57142832-13.69285752 36-22.275 8.55-5.14285752 15.42857168-8.58214248 20.57142832-11.98928584 5.14285752-1.73571416 10.28571416-5.14285752 15.42857168-6.87857168 1.70357167 0 3.40714248-1.70357167 3.40714248-1.70357081 1.73571416-11.98928584 12.02142832-30.85714248 24.01071504-46.28571415a93.98571416 93.98571416 0 0 1-39.43928584-18.86785752c-10.28571416 15.42857168-32.56071416 32.59285752-47.98928584 41.14285752 5.14285752 6.87857167 8.58214248 15.42857168 10.28571416 25.71428496l5.14285752 5.14285752c-13.725 8.58214248-27.41785752 17.16428584-36 22.30714248-11.98928584 6.84642832-18.86785752 18.83571416-24.01071504 30.85714336L329.42857168 523.98928584c-13.725-15.42857168-13.725-32.56071416 0-51.42857168l51.4285708-77.14285664c5.14285752-8.55 8.58214248-15.42857168 20.5714292-20.5714292L507.725 332c1.70357167-1.70357167 6.84642832 0 8.55 1.70357167 1.73571416 1.73571416 3.43928584 1.73571416 5.14285752 3.43928585l164.57142832 82.28571415z m-224.55 252.00000001l20.57142832-13.725c5.14285752 10.28571416 8.55 22.30714248 8.55 34.29642832a76.82142832 76.82142832 0 0 1-77.14285664 77.14285752c-42.84642832 0-77.14285752-34.29642833-77.14285752-75.43928584 0-23.97857167 12.02142832-46.28571416 29.15357168-59.97857168 3.43928584 6.84642832 5.14285752 15.42857168 10.28571416 22.275 6.84642832 10.28571416 17.13214248 18.86785752 29.15357168 22.275v30.85714248c0 5.14285752 3.40714248 8.58214248 8.55 8.58214336 5.14285752 0 8.58214248-3.43928584 8.58214248-8.58214336v-27.41785664h3.43928584a72 72 0 0 0 36-10.28571416z" fill="#FFFFFF" p-id="1266"></path></svg>