<?xml version="1.0" standalone="no"?><!DOCTYPE svg PUBLIC "-//W3C//DTD SVG 1.1//EN" "http://www.w3.org/Graphics/SVG/1.1/DTD/svg11.dtd"><svg t="1641700339344" class="icon" viewBox="0 0 1024 1024" version="1.1" xmlns="http://www.w3.org/2000/svg" p-id="5292" xmlns:xlink="http://www.w3.org/1999/xlink" width="200" height="200"><defs><style type="text/css"></style></defs><path d="M62 512a450 450 0 1 0 900 0 450 450 0 1 0-900 0z" fill="#99D6F2" p-id="5293"></path><path d="M742.56 323.418c3.44 1.736 5.144 5.143 5.144 8.582v51.429A24.429 24.429 0 0 1 737.418 404c-5.143 5.143-11.99 6.846-20.572 6.846-5.142 0-10.285-1.703-15.428-3.407L530 321.714c-3.44-1.703-3.44-5.143-5.143-6.846-1.703-1.736 0-5.143 1.704-6.879l51.428-51.428c3.44-1.704 6.879-1.704 10.286-1.704l154.286 68.56z m-56.57 96.01l1.735 1.704a5.207 5.207 0 0 1 0 6.879c-12.021 20.571-29.154 53.132-54.868 94.275-37.703 60.01-87.428 80.582-108 87.428-1.703 0-3.44 0-5.143 1.704h-1.703l-66.857 41.143c-3.44 1.735-5.143 1.735-8.583 3.439a58.34 58.34 0 0 1-34.296 0c-1.704-1.704-5.143-1.704-6.846-3.44l-1.704-1.703c-1.736-1.703-3.44-1.703-5.143-3.44-1.736-1.703-3.44-5.142-5.143-6.846a37.479 37.479 0 0 1-5.143-8.582c-1.735 0-1.735-1.703-1.735-3.407 0-1.736-1.704-3.44-1.704-5.143-1.703-1.735-1.703-3.439-1.703-5.143v-10.285c1.703-3.44 1.703-5.143 1.703-8.582 3.44-11.99 8.582-22.275 18.868-29.154 6.846-5.143 20.571-13.693 36-22.275 8.55-5.143 15.429-8.582 20.571-11.99 5.143-1.735 10.286-5.142 15.429-6.878 1.704 0 3.407-1.703 3.407-1.703 1.736-11.99 12.022-30.858 24.01-46.286a93.986 93.986 0 0 1-39.438-18.868c-10.286 15.429-32.561 32.593-47.99 41.143 5.143 6.878 8.582 15.428 10.286 25.714l5.143 5.143c-13.725 8.582-27.418 17.164-36 22.307-11.99 6.847-18.868 18.836-24.01 30.857l-37.704-63.45c-13.725-15.428-13.725-32.56 0-51.428l51.428-77.143c5.143-8.55 8.582-15.429 20.572-20.572L507.725 332c1.704-1.704 6.846 0 8.55 1.704 1.736 1.735 3.44 1.735 5.143 3.439l164.571 82.286z m-224.55 252l20.57-13.724c5.144 10.285 8.55 22.307 8.55 34.296a76.821 76.821 0 0 1-77.142 77.143c-42.847 0-77.143-34.297-77.143-75.44 0-23.978 12.021-46.285 29.154-59.978 3.439 6.846 5.142 15.429 10.285 22.275 6.847 10.286 17.132 18.868 29.154 22.275v30.857c0 5.143 3.407 8.582 8.55 8.582 5.143 0 8.582-3.439 8.582-8.582v-27.418h3.44a72 72 0 0 0 36-10.285z" fill="#FFFFFF" p-id="5294"></path></svg>