<?xml version="1.0" standalone="no"?><!DOCTYPE svg PUBLIC "-//W3C//DTD SVG 1.1//EN"
        "http://www.w3.org/Graphics/SVG/1.1/DTD/svg11.dtd">
<svg
        class="icon" viewBox="0 0 1024 1024" version="1.1" xmlns="http://www.w3.org/2000/svg"
        width="200" height="200">
    <defs>
        <style type="text/css"></style>
    </defs>
    <path d="M512.0525 62.105c-248.6034375 0-449.9475 201.3440625-449.9475 449.9475C62.105 760.6634375 263.4490625 962 512.0525 962 760.6634375 962 962 760.6634375 962 512.0525c0-248.6034375-201.3365625-449.9475-449.9475-449.9475z m-90.4396875 457.1915625V788.815625a33.38625 33.38625 0 0 1-33.46125 33.4603125 33.38625 33.38625 0 0 1-33.46875-33.4603125V519.2965625a94.26375 94.26375 0 0 1-61.95-88.6396875L311.721875 220.83125h25.7746875v77.7815625c0 5.878125 4.5215625 10.400625 10.400625 10.400625s10.4015625-4.5215625 10.4015625-10.400625V220.83125h19.895625v77.7815625c0 5.878125 4.5215625 10.400625 10.400625 10.400625s10.4015625-4.5215625 10.4015625-10.400625V220.83125h20.803125v77.7815625c0 5.878125 4.5215625 10.400625 10.400625 10.400625 5.8715625 0 10.3940625-4.5215625 10.3940625-10.400625V220.83125h26.23125l15.3740625 210.725625c0 39.7978125-25.3246875 73.715625-60.5934375 87.7321875zM743.13125 789.265625a33.38625 33.38625 0 0 1-33.46125 33.46125 33.38625 33.38625 0 0 1-33.4603125-33.46125V608.83625c0-45.219375-80.495625-28.0396875-101.74875-71.0015625-22.1596875-42.0553125 51.549375-215.7046875 78.230625-262.2825 26.6821875-47.476875 33.46125-53.3559375 54.714375-53.3559375 0.9075-0.9 1.3575-0.9 2.2640625-0.9 17.638125 0 33.46125 14.923125 33.46125 33.00375v534.965625z"
          fill="#BD8CBB"></path>
</svg>