<?xml version="1.0" standalone="no"?><!DOCTYPE svg PUBLIC "-//W3C//DTD SVG 1.1//EN" "http://www.w3.org/Graphics/SVG/1.1/DTD/svg11.dtd"><svg t="1640410782517" class="icon" viewBox="0 0 1024 1024" version="1.1" xmlns="http://www.w3.org/2000/svg" p-id="2531" xmlns:xlink="http://www.w3.org/1999/xlink" width="200" height="200"><defs><style type="text/css"></style></defs><path d="M512.05599313 32.11198719c-265.17706312 0-479.94400688 214.76694375-479.94400594 479.94400594 0 265.18506187 214.76694375 479.94400688 479.94400594 479.94400687 265.18506187 0 479.94400688-214.758945 479.94400687-479.94400688 0-265.17706312-214.758945-479.94400688-479.94400688-479.94400593zM415.58724781 519.78309219v287.48646a35.611845 35.611845 0 0 1-35.69183531 35.69183531 35.611845 35.611845 0 0 1-35.699835-35.69183531v-287.48646a100.54826906 100.54826906 0 0 1-66.08029125-94.54896938L298.36892375 201.42023469h27.49279219v82.96632c0 6.27126844 4.8234375 11.09470594 11.09470594 11.09470594s11.09470594-4.8234375 11.09470593-11.09470594V201.42023469h21.22152375v82.96632c0 6.27126844 4.8234375 11.09470594 11.09470594 11.09470594s11.09470594-4.8234375 11.094705-11.09470594V201.42023469h22.18941188v82.96632c0 6.27126844 4.8234375 11.09470594 11.094705 11.09470594 6.26326969 0 11.08670625-4.8234375 11.08670718-11.09470594V201.42023469h27.98073563l16.39808625 224.77377562c0 42.45104719-27.01284844 78.63082594-64.63245938 93.58108219z m342.95198907 287.96640375a35.611845 35.611845 0 0 1-35.69183532 35.69183625 35.611845 35.611845 0 0 1-35.69183625-35.69183625v-192.45754688c0-48.23437312-85.86198281-29.90851031-108.53133844-75.73516406-23.63724188-44.85876656 54.98558531-230.08515656 83.44626469-279.76736062 28.46067937-50.64209156 35.69183625-56.91336 58.36119188-56.91336 0.96788719-0.95988844 1.44783094-0.95988844 2.41571812-0.9598875 18.81380531 0 35.69183625 15.9181425 35.69183531 35.20389281V807.74949594z" fill="#bd8cbb" p-id="2532"></path></svg>