<?xml version="1.0" standalone="no"?><!DOCTYPE svg PUBLIC "-//W3C//DTD SVG 1.1//EN" "http://www.w3.org/Graphics/SVG/1.1/DTD/svg11.dtd"><svg t="1641700373085" class="icon" viewBox="0 0 1024 1024" version="1.1" xmlns="http://www.w3.org/2000/svg" p-id="6438" xmlns:xlink="http://www.w3.org/1999/xlink" width="200" height="200"><defs><style type="text/css"></style></defs><path d="M62 512a450 450 0 1 0 900 0 450 450 0 1 0-900 0z" fill="#75BBEB" p-id="6439"></path><path d="M613.86 522.671c21.536-26.807 50.883-44.132 88.072-51.942a213.975 213.975 0 0 0-75.696-112.468 201.729 201.729 0 0 0-127.64-43.779c-11.41 0-22.821 0.964-34.232 2.925a217.832 217.832 0 0 0-32.625 8.197 194.464 194.464 0 0 0-30.053 13.082 232.393 232.393 0 0 0-27.9 17.646 184.886 184.886 0 0 0-24.686 21.89 231.335 231.335 0 0 0-20.893 25.52 255.89 255.89 0 0 0-17.421 28.415c-5.304 10.029-9.643 20.379-12.986 31.05a237.76 237.76 0 0 0-7.94 33.654 221.946 221.946 0 0 0 7.908 103.95c7.168 22.21 17.293 42.268 30.407 60.139 13.082 17.871 28.286 33.46 45.61 46.736a204.364 204.364 0 0 0 58.276 31.05c21.535 7.393 43.714 11.121 66.503 11.121 32.079 0 62.068-6.878 89.968-20.571a215.293 215.293 0 0 0 71.55-56.572c-35.871-10.896-58.05-32.014-66.503-63.418-8.036-30.921-1.286-59.785 20.282-86.625z m-173.892 69.975a83.796 83.796 0 0 1-24.397-60.46c0-15.686 3.697-30.086 11.09-43.168s17.518-23.432 30.407-31.05c12.857-7.618 26.71-11.41 41.464-11.443a79.393 79.393 0 0 1 59.272 25.168c16.232 16.778 24.364 36.964 24.364 60.493 0 15.685-3.697 30.053-11.09 43.135-7.392 13.083-17.517 23.465-30.407 31.05-12.857 7.618-26.903 11.443-42.107 11.443-22.821 0-42.332-8.357-58.596-25.168z m361.318-206.903a293.946 293.946 0 0 0-19.029-33.654 140.529 140.529 0 0 0-20.571-25.168 189.868 189.868 0 0 0-21.215-17.357 100.35 100.35 0 0 0-20.892-11.41c-6.75-2.636-13.211-4.822-19.35-6.558a73.671 73.671 0 0 0-16.779-2.957c-2.314-0.096-12.214-1.157-29.764-1.639-11.668-0.321-21.182-0.321-28.511 0a894.536 894.536 0 0 1 48.15 70.618c13.5 22.21 23.85 41.175 31.018 56.893 7.168 15.653 12.986 29.732 17.421 42.139 4.436 12.44 7.072 23.014 7.94 31.725 0.835 8.71 1.157 15.364 0.964 19.929a53.614 53.614 0 0 1-1.607 11.442c-16.875-8.71-35.679-10.253-56.379-4.564-19.414 5.657-34.521 16.329-45.29 32.014-10.735 15.686-14.013 31.597-9.803 47.7 4.211 16.136 14.69 27.997 31.372 35.647 16.682 7.618 34.714 8.614 54.16 2.957a90.643 90.643 0 0 0 26.615-13.436c8.035-5.882 14.464-12.535 19.285-19.928 4.886-7.393 10.929-15.461 12.6-24.172 15.686-43.81 8.197-97.843-36.964-187.618l-22.821-41.85 99.45 39.215z m-325.19 106.232a46.575 46.575 0 0 0-22.5 40.179c0 12.664 4.404 23.56 13.275 32.721 8.872 9.16 19.543 13.725 31.983 13.725 12.471 0 23.046-4.596 31.692-13.725 8.679-9.129 12.986-20.025 12.986-32.69 0-12.664-4.307-23.56-12.986-32.72a42.429 42.429 0 0 0-31.982-13.694c-8.035 0-15.525 2.058-22.5 6.204z" fill="#FFFFFF" p-id="6440"></path></svg>