<?xml version="1.0" standalone="no"?><!DOCTYPE svg PUBLIC "-//W3C//DTD SVG 1.1//EN" "http://www.w3.org/Graphics/SVG/1.1/DTD/svg11.dtd"><svg t="1640786210536" class="icon" viewBox="0 0 1024 1024" version="1.1" xmlns="http://www.w3.org/2000/svg" p-id="1643" xmlns:xlink="http://www.w3.org/1999/xlink" width="200" height="200"><defs><style type="text/css"></style></defs><path d="M512 512m-450 0a450 450 0 1 0 900 0 450 450 0 1 0-900 0Z" fill="#75BBEB" p-id="1644"></path><path d="M613.86071416 522.67142832c21.53571416-26.80714248 50.88214248-44.13214248 88.07142832-51.94285664a213.975 213.975 0 0 0-75.69642832-112.46785752 201.72857168 201.72857168 0 0 0-127.63928583-43.77857168c-11.41071416 0-22.82142832 0.96428584-34.23214249 2.925a217.83214248 217.83214248 0 0 0-32.625 8.1964292 194.46428584 194.46428584 0 0 0-30.05357168 13.08214248 232.39285752 232.39285752 0 0 0-27.9 17.64642832 184.88571416 184.88571416 0 0 0-24.68571416 21.88928584c-7.61785752 8.06785752-14.59285752 16.58571416-20.89285752 25.5214292a255.88928584 255.88928584 0 0 0-17.42142832 28.41428496c-5.30357168 10.02857168-9.64285752 20.37857167-12.98571416 31.05a237.76071416 237.76071416 0 0 0-7.93928584 33.65357168 221.94642832 221.94642832 0 0 0 7.90714336 103.95c7.16785752 22.21071416 17.29285752 42.26785752 30.40714248 60.13928584 13.08214248 17.87142832 28.28571416 33.46071416 45.61071416 46.73571416a204.36428584 204.36428584 0 0 0 58.275 31.05c21.53571416 7.39285752 43.71428584 11.12142833 66.50357168 11.12142832 32.07857168 0 62.06785752-6.87857167 89.96785664-20.57142832A215.29285752 215.29285752 0 0 0 660.08214248 672.71428584c-35.87142832-10.89642833-58.05-32.01428584-66.5035708-63.41785752-8.03571416-30.92142832-1.28571416-59.78571416 20.28214248-86.625z m-173.89285664 69.975A83.79642833 83.79642833 0 0 1 415.57142832 532.18571416c0-15.68571416 3.69642832-30.08571416 11.08928584-43.16785664 7.39285752-13.08214248 17.51785752-23.43214248 30.40714336-31.05 12.85714248-7.61785752 26.71071416-11.41071416 41.46428496-11.44285752a79.39285752 79.39285752 0 0 1 59.27142919 25.16785752c16.23214248 16.77857167 24.36428584 36.96428584 24.36428585 60.49285664 0 15.68571416-3.69642832 30.05357168-11.08928585 43.13571416-7.39285752 13.08214248-17.51785752 23.46428584-30.40714335 31.05-12.85714248 7.61785752-26.90357168 11.44285752-42.10714248 11.44285752-22.82142832 0-42.33214248-8.35714248-58.59642832-25.16785752zM801.28571416 385.74285752a293.94642832 293.94642832 0 0 0-19.02857168-33.65357168 140.52857168 140.52857168 0 0 0-20.57142832-25.16785751 189.86785752 189.86785752 0 0 0-21.21428584-17.35714249 100.35 100.35 0 0 0-20.89285664-11.41071416c-6.75-2.63571416-13.21071416-4.82142832-19.35-6.55714335a73.67142832 73.67142832 0 0 0-16.77857168-2.95714249c-2.31428584-0.09642832-12.21428584-1.15714248-29.76428584-1.63928584-11.66785752-0.32142832-21.18214248-0.32142832-28.51071416 0a894.53571416 894.53571416 0 0 1 48.15 70.61785752c13.5 22.21071416 23.85 41.175 31.01785752 56.89285664 7.16785752 15.65357168 12.98571416 29.73214248 17.42142832 42.13928584 4.43571416 12.43928584 7.07142833 23.01428584 7.93928584 31.725 0.83571416 8.71071416 1.15714248 15.36428584 0.96428584 19.92857167a53.61428584 53.61428584 0 0 1-1.60714336 11.44285665c-16.875-8.71071416-35.67857168-10.25357167-56.37857168-4.56428584-19.41428584 5.65714248-34.52142832 16.32857167-45.28928496 32.01428584-10.73571416 15.68571416-14.01428584 31.59642832-9.80357168 47.7 4.21071416 16.13571416 14.68928584 27.99642832 31.37142832 35.6464292 16.68214248 7.61785752 34.71428584 8.61428584 54.16071416 2.95714248a90.64285752 90.64285752 0 0 0 26.61428584-13.43571416c8.03571416-5.88214248 14.46428584-12.53571416 19.28571416-19.92857168 4.88571416-7.39285752 10.92857168-15.46071416 12.6-24.17142832 15.68571416-43.81071416 8.19642832-97.84285752-36.96428584-187.61785752l-22.82142832-41.85L801.28571416 385.71071416z m-325.18928584 106.23214248a46.575 46.575 0 0 0-22.49999999 40.17857168c0 12.66428584 4.40357168 23.56071416 13.275 32.72142832 8.87142832 9.16071416 19.54285752 13.725 31.98214335 13.725 12.47142832 0 23.04642832-4.59642832 31.69285665-13.725 8.67857168-9.12857167 12.98571416-20.025 12.98571415-32.68928584 0-12.66428584-4.30714248-23.56071416-12.98571415-32.72142832a42.42857168 42.42857168 0 0 0-31.98214249-13.69285751c-8.03571416 0-15.525 2.05714248-22.5 6.20357167z" fill="#FFFFFF" p-id="1645"></path></svg>