<?xml version="1.0" standalone="no"?><!DOCTYPE svg PUBLIC "-//W3C//DTD SVG 1.1//EN" "http://www.w3.org/Graphics/SVG/1.1/DTD/svg11.dtd"><svg t="1640410834311" class="icon" viewBox="0 0 1024 1024" version="1.1" xmlns="http://www.w3.org/2000/svg" p-id="3540" xmlns:xlink="http://www.w3.org/1999/xlink" width="200" height="200"><defs><style type="text/css"></style></defs><path d="M567.8336 570.656l-73.7664 10.8-5.2608-35.8272 73.7664-10.8-3.7728-25.7472-62.8032 9.1968 62.2368-128.352-43.1808 6.3168-41.76 98.1984c-3.36 7.7952-5.9616 15.0336-7.7952 21.7152l-0.8256 0.1248a289.3632 289.3632 0 0 0-13.1616-17.808l-68.0736-82.9536-46.08 6.7488 95.4048 105.264-64.0416 9.3792 3.7632 25.7568 76.0416-11.1456 5.2512 35.8368-76.032 11.136 3.792 25.92 76.032-11.136 7.5456 51.5136 40.2912-5.904-7.5456-51.5136 73.7664-10.8-3.792-25.92z m0 0" fill="#F54847" p-id="3541"></path><path d="M512 40.8224C251.7728 40.8224 40.8224 251.7728 40.8224 512 40.8224 772.2272 251.7824 983.1776 512 983.1776S983.1776 772.2176 983.1776 512C983.1776 251.7728 772.2176 40.8224 512 40.8224z m282.4224 308.4672c2.7936 0.0768 5.3664 1.1136 7.4592 2.8032-14.8032 32.7168-54.528 59.0688-106.6368 72.24l-11.0112-77.8944 110.1888 2.8512z m-567.12-91.9488l392.9568-55.5744c3.0336-0.4224 5.9712 0.2496 8.5248 1.7184-14.832 57.4944-92.1696 109.5456-191.2224 123.5616-99.0432 14.0064-187.7856-14.5632-217.9872-65.6832 2.064-2.1312 4.7136-3.6 7.728-4.0224z m54.6048 495.0816l-66.336-469.0656c34.6944 53.7504 124.8768 83.8848 224.7456 69.7632 99.8592-14.112 178.1568-68.064 196.5792-129.3312l66.3456 469.056c1.2288 8.688-4.128 16.6176-11.9616 17.7312l-392.9568 55.5744c-7.8336 1.104-15.1872-5.04-16.416-13.728z m515.472 55.9584c-0.2016 7.9104-6.2496 14.1696-13.5072 13.9776l-363.84-9.4176c-7.2576-0.192-12.9696-6.7488-12.768-14.6592l0.384-14.8896 316.032-44.6976c7.8432-1.1136 13.2288-8.8224 12.0384-17.2128l-37.4208-264.5952c52.3392-13.9488 92.8992-41.4432 110.1216-75.7728l-11.04 427.2672z m0 0" fill="#F54847" p-id="3542"></path></svg>