<?xml version="1.0" standalone="no"?><!DOCTYPE svg PUBLIC "-//W3C//DTD SVG 1.1//EN" "http://www.w3.org/Graphics/SVG/1.1/DTD/svg11.dtd"><svg t="1641700351268" class="icon" viewBox="0 0 1024 1024" version="1.1" xmlns="http://www.w3.org/2000/svg" p-id="5723" xmlns:xlink="http://www.w3.org/1999/xlink" width="200" height="200"><defs><style type="text/css"></style></defs><path d="M564.344375 566.99l-69.1565625 10.125-4.93125-33.5878125 69.155625-10.125-3.5371875-24.1378125-58.8778125 8.62125 58.3471875-120.33-40.4821875 5.9221875-39.15 92.0615625c-3.15 7.3078125-5.589375 14.0934375-7.3078125 20.3578125l-0.774375 0.1171875a271.2778125 271.2778125 0 0 0-12.339375-16.695l-63.8184375-77.769375-43.2 6.3271875 89.4421875 98.685-60.039375 8.7928125 3.5278125 24.1471875 71.289375-10.449375 4.9228125 33.5971875-71.28 10.44 3.555 24.3 71.28-10.44 7.074375 48.294375 37.771875-5.535-7.0734375-48.294375 69.1565625-10.125-3.555-24.3z m0 0" fill="#F54847" p-id="5724"></path><path d="M512 70.270625C268.0371875 70.270625 70.270625 268.03625 70.270625 512c0 243.9628125 197.775 441.729375 441.729375 441.729375S953.729375 755.954375 953.729375 512c0-243.9628125-197.775-441.729375-441.729375-441.729375zM776.770625 359.459375c2.619375 0.07125 5.0315625 1.0434375 6.99375 2.6278125-13.87875 30.6721875-51.12 55.3771875-99.9721875 67.725l-10.3228125-73.0265625 103.30125 2.67375z m-531.675-86.203125l368.3971875-52.100625c2.844375-0.395625 5.5978125 0.234375 7.9921875 1.6115625-13.905 53.900625-86.409375 102.6984375-179.270625 115.8384375-92.85375 13.1315625-176.049375-13.6528125-204.36375-61.5778125 1.935-1.9978125 4.419375-3.375 7.245-3.770625z m51.1921875 464.139375l-62.19-439.7484375c32.5265625 50.390625 117.0721875 78.6421875 210.699375 65.4028125 93.6178125-13.23 167.0221875-63.81 184.2928125-121.2478125l62.199375 439.74c1.15125 8.145-3.87 15.5784375-11.214375 16.6228125L311.6778125 750.265625c-7.3434375 1.035-14.2378125-4.725-15.39-12.87z m483.255 52.4615625c-0.1884375 7.415625-5.859375 13.284375-12.6628125 13.1034375l-341.1-8.8284375c-6.804375-0.18-12.159375-6.3271875-11.97-13.74375l0.36-13.9584375 296.28-41.904375c7.3528125-1.0434375 12.4021875-8.270625 11.285625-16.13625l-35.08125-248.05875c49.0678125-13.07625 87.0928125-38.8528125 103.2384375-71.03625L779.54375 789.85625z m0 0" fill="#F54847" p-id="5725"></path></svg>