<?xml version="1.0" standalone="no"?><!DOCTYPE svg PUBLIC "-//W3C//DTD SVG 1.1//EN" "http://www.w3.org/Graphics/SVG/1.1/DTD/svg11.dtd"><svg t="1641700267137" class="icon" viewBox="0 0 1024 1024" version="1.1" xmlns="http://www.w3.org/2000/svg" p-id="3864" xmlns:xlink="http://www.w3.org/1999/xlink" width="200" height="200"><defs><style type="text/css"></style></defs><path d="M62 512a450 450 0 1 0 900 0 450 450 0 1 0-900 0z" fill="#EFB336" p-id="3865"></path><path d="M719.770625 353.13125c-16.895625-4.5271875-35.045625-5.2359375-52.485-2.0503125a123.3309375 123.3309375 0 0 0-38.634375 14.08125 123.3159375 123.3159375 0 0 0-26.41875-31.513125c-13.509375-11.4778125-29.58-19.936875-46.475625-24.4640625-29.855625-8.000625-60.5859375-4.1128125-86.5284375 10.95-25.9340625 15.054375-44.64 39.85875-52.6734375 69.8371875-19.51125 72.8146875 27.0375 145.91625 97.4971875 256.5703125l2.8453125 4.4690625 24.8840625 38.3484375 7.9790625-4.070625 32.671875-16.655625 4.764375-2.4825c116.3521875-60.6009375 193.21875-100.636875 212.73-173.4553125 8.0334375-29.98125 4.235625-60.811875-10.696875-86.818125-14.9371875-26.01375-39.6046875-44.746875-69.459375-52.7465625zM287.7078125 482.6046875c-5.73 8.49375-9.590625 18.406875-11.165625 28.6659375a72.256875 72.256875 0 0 0 0.39 24.0609375 72.249375 72.249375 0 0 0-22.4540625 8.6503125c-8.9221875 5.3025-16.6659375 12.594375-22.396875 21.0928125-10.1259375 15.0121875-13.854375 32.7628125-10.49625 49.9809375 3.358125 17.2125 13.4784375 32.2734375 28.5 42.4059375 36.48375 24.6084375 85.756875 12.6984375 160.3396875-5.32875l3.0121875-0.729375 25.935-6.5053125-0.721875-5.1871875-2.953125-21.2484375-0.4603125-3.106875c-11.2246875-75.909375-18.639375-126.058125-55.123125-150.6684375-15.0225-10.1315625-32.776875-13.8740625-49.995-10.5384375-17.221875 3.3375-32.2846875 13.441875-42.410625 28.4540625z" fill="#FFFFFF" p-id="3866"></path></svg>