<?xml version="1.0" standalone="no"?><!DOCTYPE svg PUBLIC "-//W3C//DTD SVG 1.1//EN" "http://www.w3.org/Graphics/SVG/1.1/DTD/svg11.dtd"><svg t="1640410799319" class="icon" viewBox="0 0 1024 1024" version="1.1" xmlns="http://www.w3.org/2000/svg" p-id="2958" xmlns:xlink="http://www.w3.org/1999/xlink" width="200" height="200"><defs><style type="text/css"></style></defs><path d="M512 512m-480 0a480 480 0 1 0 960 0 480 480 0 1 0-960 0Z" fill="#efb336" p-id="2959"></path><path d="M733.622272 342.540288c-18.0224-4.829184-37.382144-5.584896-55.984128-2.187264a131.55328 131.55328 0 0 0-41.209856 15.020032 131.536896 131.536896 0 0 0-28.18048-33.613824c-14.409728-12.242944-31.551488-21.266432-49.573888-26.095616-31.8464-8.534016-64.62464-4.386816-92.297216 11.679744-27.662336 16.058368-47.616 42.51648-56.184832 74.493952-20.811776 77.668352 28.839936 155.643904 103.99744 273.67424l3.035136 4.767744 26.54208 40.904704 8.511488-4.34176 34.850816-17.7664 5.081088-2.648064c124.1088-64.641024 206.10048-107.34592 226.912256-185.018368 8.568832-31.97952 4.517888-64.866304-11.409408-92.606464-15.93344-27.748352-42.246144-47.730688-74.090496-56.262656zM272.754688 480.64512c-6.111232 9.060352-10.22976 19.634176-11.90912 30.57664a77.074432 77.074432 0 0 0 0.415744 25.665536 77.06624 77.06624 0 0 0-23.95136 9.22624c-9.517056 5.656576-17.77664 13.43488-23.88992 22.499328-10.801152 16.013312-14.778368 34.947072-11.196416 53.313536 3.581952 18.36032 14.37696 34.424832 30.400512 45.232128 38.916096 26.249216 91.47392 13.545472 171.02848-5.6832l3.213312-0.77824 27.664384-6.938624-0.770048-5.533696-3.149824-22.665216-0.49152-3.313664c-11.972608-80.969728-19.881984-134.46144-58.79808-160.712704-16.023552-10.807296-34.961408-14.798848-53.327872-11.241472-18.37056 3.559424-34.43712 14.338048-45.238272 30.35136z" fill="#ffffff" p-id="2960"></path></svg>