<?xml version="1.0" standalone="no"?><!DOCTYPE svg PUBLIC "-//W3C//DTD SVG 1.1//EN" "http://www.w3.org/Graphics/SVG/1.1/DTD/svg11.dtd"><svg t="1640786207487" class="icon" viewBox="0 0 1024 1024" version="1.1" xmlns="http://www.w3.org/2000/svg" p-id="1496" xmlns:xlink="http://www.w3.org/1999/xlink" width="200" height="200"><defs><style type="text/css"></style></defs><path d="M512 512m-450 0a450 450 0 1 0 900 0 450 450 0 1 0-900 0Z" fill="#8CA8E6" p-id="1497"></path><path d="M766.66785752 460.08928584v190.38214248a17.29285752 17.29285752 0 0 1-34.61785752 0v-69.23571416c0-28.67142832-23.23928584-51.94285752-51.91071416-51.94285664h-51.94285752V321.61785752c0-19.125-15.49285752-34.61785752-34.61785664-34.61785752h-207.675C366.77857168 287 351.28571416 302.49285752 351.28571416 321.61785752v380.76428496C351.28571416 721.50714248 366.77857168 737 385.90357168 737h207.675c19.125 0 34.61785752-15.49285752 34.61785664-34.61785752v-138.47142832h51.94285752c9.54642832 0 17.29285752 7.74642832 17.29285664 17.325v69.23571416a51.91071416 51.91071416 0 1 0 103.85357168 0v-224.99999999c0-19.125-15.49285752-34.61785752-34.61785664-34.61785666V338.58928584a17.29285752 17.29285752 0 0 0-17.29285752-16.97142832 17.67857168 17.67857168 0 0 0-17.325 19.0285708v84.825a34.61785752 34.61785752 0 1 0 34.61785752-34.61785664v69.23571416z m-173.08928584 17.29285664a17.29285752 17.29285752 0 0 1-17.29285752 17.325h-173.08928584a17.29285752 17.29285752 0 0 1-17.29285664-17.325v-103.82142832a17.29285752 17.29285752 0 0 1 17.29285664-17.35714248H576.28571416c9.54642832 0 17.29285752 7.77857167 17.29285752 17.35714248v103.82142832z" fill="#FFFFFF" p-id="1498"></path></svg>