<?xml version="1.0" standalone="no"?><!DOCTYPE svg PUBLIC "-//W3C//DTD SVG 1.1//EN" "http://www.w3.org/Graphics/SVG/1.1/DTD/svg11.dtd"><svg t="1641700343422" class="icon" viewBox="0 0 1024 1024" version="1.1" xmlns="http://www.w3.org/2000/svg" p-id="5435" xmlns:xlink="http://www.w3.org/1999/xlink" width="200" height="200"><defs><style type="text/css"></style></defs><path d="M62 512a450 450 0 1 0 900 0 450 450 0 1 0-900 0z" fill="#8CA8E6" p-id="5436"></path><path d="M766.668 460.09V650.47a17.293 17.293 0 0 1-34.618 0v-69.235c0-28.672-23.24-51.943-51.91-51.943h-51.944V321.618c0-19.125-15.492-34.618-34.617-34.618H385.904c-19.125 0-34.618 15.493-34.618 34.618v380.764c0 19.125 15.493 34.618 34.618 34.618h207.675c19.125 0 34.617-15.493 34.617-34.618V563.911h51.943c9.547 0 17.293 7.746 17.293 17.325v69.235a51.91 51.91 0 1 0 103.854 0v-225c0-19.125-15.493-34.617-34.618-34.617v-52.265a17.293 17.293 0 0 0-17.293-16.971 17.679 17.679 0 0 0-17.325 19.028v84.825a34.618 34.618 0 1 0 34.618-34.617v69.235z m-173.09 17.292a17.293 17.293 0 0 1-17.292 17.325h-173.09a17.293 17.293 0 0 1-17.292-17.325V373.561a17.293 17.293 0 0 1 17.292-17.357h173.09c9.546 0 17.293 7.778 17.293 17.357v103.821z" fill="#FFFFFF" p-id="5437"></path></svg>