<?xml version="1.0" standalone="no"?><!DOCTYPE svg PUBLIC "-//W3C//DTD SVG 1.1//EN" "http://www.w3.org/Graphics/SVG/1.1/DTD/svg11.dtd"><svg t="1640786204508" class="icon" viewBox="0 0 1024 1024" version="1.1" xmlns="http://www.w3.org/2000/svg" p-id="1349" xmlns:xlink="http://www.w3.org/1999/xlink" width="200" height="200"><defs><style type="text/css"></style></defs><path d="M512 512m-450 0a450 450 0 1 0 900 0 450 450 0 1 0-900 0Z" fill="#99D6F2" p-id="1350"></path><path d="M698.91071416 287H322.45357168c-19.47857168 0-35.29285752 15.81428584-35.29285752 35.29285752V701.64285752c0 25.97142832 27.06428584 43.00714248 50.46428584 31.8535708l157.85357168-86.36785664c9.64285752-4.56428584 20.76428584-4.56428584 30.375 0l157.88571416 86.4a35.29285752 35.29285752 0 0 0 50.46428584-31.88571416V322.29285752c0-19.47857168-15.81428584-35.29285752-35.29285752-35.29285752zM365.26785752 373.94642832h191.12142832c5.33571416 0 10.22142832 3.375 12.85714248 8.80714336a20.57142832 20.57142832 0 0 1 0 17.6785708c-2.63571416 5.46428584-7.52142833 8.80714248-12.85714248 8.80714336H365.26785752c-5.30357168 0-10.18928584-3.375-12.85714336-8.83928584a20.57142832 20.57142832 0 0 1 0-17.64642832c2.66785752-5.46428584 7.55357167-8.80714248 12.85714336-8.80714336z m0 70.58571416h239.14285664c8.19642832 0 14.85 7.90714248 14.85 17.6464292 0 9.73928584-6.65357168 17.64642832-14.85 17.64642832h-239.14285664c-8.19642832 0-14.85-7.90714248-14.85-17.67857167 0-9.70714248 6.65357168-17.61428584 14.85-17.61428585z m287.16428496 105.87857168H365.26785752c-5.49642833 0.35357167-10.73571416-2.89285752-13.56428584-8.51785664a20.57142832 20.57142832 0 0 1 0-18.25714336c2.82857168-5.59285752 8.03571416-8.90357168 13.56428584-8.51785664h287.16428496c5.49642833-0.38571416 10.70357168 2.89285752 13.56428585 8.51785664a20.57142832 20.57142832 0 0 1 0 18.25714336c-2.86071416 5.59285752-8.06785752 8.87142832-13.56428585 8.51785664z" fill="#FFFFFF" p-id="1351"></path></svg>