<?xml version="1.0" standalone="no"?><!DOCTYPE svg PUBLIC "-//W3C//DTD SVG 1.1//EN" "http://www.w3.org/Graphics/SVG/1.1/DTD/svg11.dtd"><svg t="1641700355159" class="icon" viewBox="0 0 1024 1024" version="1.1" xmlns="http://www.w3.org/2000/svg" p-id="5866" xmlns:xlink="http://www.w3.org/1999/xlink" width="200" height="200"><defs><style type="text/css"></style></defs><path d="M62 512a450 450 0 1 0 900 0 450 450 0 1 0-900 0z" fill="#99D6F2" p-id="5867"></path><path d="M698.91 287H322.455c-19.479 0-35.293 15.814-35.293 35.293v379.35c0 25.971 27.064 43.007 50.464 31.853l157.854-86.367c9.642-4.565 20.764-4.565 30.375 0l157.885 86.4a35.293 35.293 0 0 0 50.465-31.886v-379.35c0-19.479-15.815-35.293-35.293-35.293z m-333.642 86.946h191.121c5.336 0 10.222 3.375 12.857 8.808a20.571 20.571 0 0 1 0 17.678c-2.635 5.464-7.521 8.807-12.857 8.807H365.268c-5.304 0-10.19-3.375-12.857-8.839a20.571 20.571 0 0 1 0-17.646c2.668-5.465 7.553-8.808 12.857-8.808z m0 70.586H604.41c8.196 0 14.85 7.907 14.85 17.647 0 9.739-6.654 17.646-14.85 17.646H365.268c-8.197 0-14.85-7.907-14.85-17.679 0-9.707 6.653-17.614 14.85-17.614z m287.164 105.879H365.268c-5.497 0.353-10.736-2.893-13.564-8.518a20.571 20.571 0 0 1 0-18.257c2.828-5.593 8.035-8.904 13.564-8.518h287.164c5.497-0.386 10.704 2.893 13.564 8.518a20.571 20.571 0 0 1 0 18.257c-2.86 5.593-8.067 8.871-13.564 8.518z" fill="#FFFFFF" p-id="5868"></path></svg>