<?xml version="1.0" standalone="no"?><!DOCTYPE svg PUBLIC "-//W3C//DTD SVG 1.1//EN" "http://www.w3.org/Graphics/SVG/1.1/DTD/svg11.dtd"><svg t="1641700261831" class="icon" viewBox="0 0 1024 1024" version="1.1" xmlns="http://www.w3.org/2000/svg" p-id="3721" xmlns:xlink="http://www.w3.org/1999/xlink" width="200" height="200"><defs><style type="text/css"></style></defs><path d="M512 62c248.521875 0 450 201.478125 450 450S760.521875 962 512 962 62 760.521875 62 512 263.478125 62 512 62z" fill="#D81E06" p-id="3722"></path><path d="M700.1815625 287H323.8184375C303.3640625 287 287 303.3640625 287 323.8184375v261.8175c0 19.4325 14.3184375 34.7728125 33.75 36.8184375 58.295625 18.4096875 118.6359375 31.704375 181.021875 32.728125v51.1359375H358.5921875V737h296.5903125v-30.6815625H532.454375v-51.136875c58.295625-2.045625 115.5684375-15.3403125 170.795625-33.75 19.4315625-2.045625 33.75-17.3859375 33.75-36.8175V323.8184375C737 303.3640625 720.6359375 287 700.1815625 287zM658.25 475.1815625h-31.704375v-50.113125L545.75 523.25l-95.1140625-73.6359375-77.7271875 97.15875-24.5446875-19.4315625L445.521875 405.6359375l95.113125 73.636875 67.5-81.8184375h-59.3175V365.75H658.25v109.4315625z m0 0" fill="#FFFFFF" p-id="3723"></path></svg>