<?xml version="1.0" standalone="no"?><!DOCTYPE svg PUBLIC "-//W3C//DTD SVG 1.1//EN" "http://www.w3.org/Graphics/SVG/1.1/DTD/svg11.dtd"><svg t="1640410828995" class="icon" viewBox="0 0 1024 1024" version="1.1" xmlns="http://www.w3.org/2000/svg" p-id="3397" xmlns:xlink="http://www.w3.org/1999/xlink" width="200" height="200"><defs><style type="text/css"></style></defs><path d="M512 32c265.09090875 0 480 214.90909125 480 480S777.09090875 992 512 992 32 777.09090875 32 512 246.90909125 32 512 32z" fill="#d81e06" p-id="3398"></path><path d="M712.72727281 272H311.27272719c-21.81818156 0-39.27272719 17.45454563-39.27272719 39.27272719v279.27272719c0 20.72727281 15.27272719 37.09090875 36 39.27272718C370.18181844 649.45454562 434.54545437 663.63636406 501.09090875 664.72727281v54.54545438H348.36363594v32.72727281h316.36363687v-32.72727281H533.81818156v-54.54545438c62.18181844-2.18181844 123.27272719-16.36363594 182.18181844-36 20.72727281-2.18181844 36-18.54545438 36-39.27272719V311.27272719c0-21.81818156-17.45454563-39.27272719-39.27272719-39.27272719z m-44.72727281 200.72727281h-33.81818156v-53.45454562l-86.18181844 104.72727281-101.45454562-78.54545437-82.90909032 103.63636312-26.18181843-20.72727281 103.63636312-129.81818156 101.45454563 78.54545437 72-87.27272719h-63.27272719v-33.81818156h116.72727281v116.72727281z m0 0" fill="#FFFFFF" p-id="3399"></path></svg>