<?xml version="1.0" standalone="no"?><!DOCTYPE svg PUBLIC "-//W3C//DTD SVG 1.1//EN" "http://www.w3.org/Graphics/SVG/1.1/DTD/svg11.dtd"><svg t="1640355952753" class="icon" viewBox="0 0 1024 1024" version="1.1" xmlns="http://www.w3.org/2000/svg" p-id="1169" xmlns:xlink="http://www.w3.org/1999/xlink" width="200" height="200"><defs><style type="text/css"></style></defs><path d="M526.75773667 964.14985443c-29.80674333 0-59.71057778-11.35957333-82.42972444-34.07872L117.23055445 603.07076779c-48.05973333-48.05973333-67.57489778-116.12008334-52.4288-182.23862557l40.58377444-251.07569777a77.49753401 77.49753401 0 0 1 64.27382556-64.27382557l251.07569778-40.58377443c66.11854222-15.14609778 134.17889223 4.36906667 182.23862443 52.4288l327.09745777 327.09745777c22.03951445 22.03951445 34.07872 51.26371555 34.07872 82.42972445s-12.13629667 60.39020999-34.07872 82.42972444L609.09036999 930.07113443a116.07153778 116.07153778 0 0 1-82.33263332 34.07872z m-61.94365667-826.62741333c-9.12649443 0-18.35008 1.06799445-27.57366557 3.20398223l-2.71852998 0.58254222-252.33787222 40.87504668-41.4575889 255.0564022c-9.51485667 40.19541333 2.2330789 81.6530011 31.45728 110.87720335l327.09745777 327.09745777c14.66064555 14.66064555 40.29250333 14.66064555 54.95315001 0L875.11798557 554.23431111c7.37886777-7.37886777 11.35957333-17.08790557 11.35957333-27.47657444s-4.07779555-20.09770667-11.35957333-27.47657557L548.11761778 172.18370333c-22.62205667-22.52496555-52.4288-34.66126222-83.30353778-34.66126223z" fill="#333C4F" p-id="1170"></path><path d="M206.55369443 513.74762667a69.26427022 69.26427022 0 0 1-18.54425998-65.34181888l0.67963222-3.10689224 35.72925667-220.88059221 220.88059221-35.72925667 3.10689224-0.67963222c5.24288-1.26217443 10.67994112-1.84471666 16.01991111-1.84471779 18.64135111 0 36.11761778 7.28177778 49.32190777 20.38897777l290.30020778 290.30020779c16.50536334 16.50536334 16.50536334 43.30230557 0 59.80766777L556.56448 804.14492445c-16.50536334 16.50536334-43.30230557 16.50536334-59.80766777 0L206.55369443 513.74762667z" fill="#ffffff" p-id="1171"></path><path d="M362.9662811 479.47472555c-29.80674333 0-59.71057778-11.35957333-82.42972444-34.07872-45.43829333-45.43829333-45.43829333-119.32406557 0-164.76235776s119.32406557-45.43829333 164.76235889 0 45.43829333 119.32406557 0 164.76235776c-22.62205667 22.71914667-52.4288 34.07872-82.33263445 34.07872z m0-155.24750222a38.81673045 38.81673045 0 0 0-27.47657443 66.31272334c15.14609778 15.14609778 39.80705223 15.14609778 54.95315 0s15.14609778-39.80705223 0-54.95315001c-7.57304889-7.57304889-17.47626667-11.35957333-27.47657557-11.35957333zM646.85852445 425.78375111L427.14301667 645.49925888a38.91382045 38.91382045 0 0 1-54.95315 0 38.91382045 38.91382045 0 0 1 0-54.95314887l219.71550776-219.71550891a38.91382045 38.91382045 0 0 1 54.95315002 0c15.04900779 15.14609778 15.04900779 39.90414222 0 54.95315001zM654.62575445 625.88700445L531.12680334 749.48304555a38.91382045 38.91382045 0 0 1-54.95315001 0 38.91382045 38.91382045 0 0 1 0-54.95314888l123.5960411-123.59604224a38.91382045 38.91382045 0 0 1 54.95315002 0 38.82643911 38.82643911 0 0 1-0.09709 54.95315002z" fill="#333C4F" p-id="1172"></path></svg>