<?xml version="1.0" standalone="no"?><!DOCTYPE svg PUBLIC "-//W3C//DTD SVG 1.1//EN" "http://www.w3.org/Graphics/SVG/1.1/DTD/svg11.dtd"><svg t="1640786235729" class="icon" viewBox="0 0 1024 1024" version="1.1" xmlns="http://www.w3.org/2000/svg" p-id="1790" xmlns:xlink="http://www.w3.org/1999/xlink" width="200" height="200"><defs><style type="text/css"></style></defs><path d="M512 512m-450 0a450 450 0 1 0 900 0 450 450 0 1 0-900 0Z" fill="#E68CBF" p-id="1791"></path><path d="M430.42142832 496.89285752C373.78571416 475.19642832 335.21428584 432.51071416 335.21428584 383.42857168c0-71.03571416 80.58214248-128.57142832 180-128.5714292 99.41785752 0 180 57.53571416 180 128.5714292 0 49.11428584-38.57142832 91.8-95.20714336 113.46428584C656.64285752 512 695.21428584 541.89285752 695.21428584 576.28571416v102.95357168C695.11785752 728.9 614.53571416 769.14285752 515.21428584 769.14285752c-98.67857168 0-178.77857168-39.69642832-180-88.875a45.93214248 45.93214248 0 0 1 0-2.25V576.28571416c0-34.39285752 38.57142832-64.28571416 95.20714249-79.39285664z m84.79285752-10.60714336c86.72142832 0 154.28571416-48.27857168 154.28571416-102.85714248 0-54.57857168-67.56428584-102.85714248-154.28571416-102.85714336S360.92857168 328.85 360.92857168 383.42857168c0 54.57857168 67.56428584 102.85714248 154.28571416 102.85714248z m122.91428584 127.09285752c19.76785752-11.12142833 31.37142832-24.36428584 31.37142832-37.09285752 0-30.66428584-67.24285752-64.28571416-154.28571416-64.28571416-87.04285752 0-154.28571416 33.62142833-154.28571417 64.28571416 0 12.72857168 11.57142832 25.97142832 31.37142833 37.09285752 27.86785752 15.68571416 72 27.19285752 122.91428584 27.19285664 50.88214248 0 95.04642832-11.50714248 122.91428584-27.19285664z m24.81428584 14.33571416c20.34642832 14.59285752 32.27142832 32.30357168 32.27142832 51.42857168 0-19.125-11.925-36.83571416-32.27142832-51.42857168z m-147.72857168-12.85714336c-58.01785752 0-102.85714248-20.18571416-102.85714336-38.57142832s44.83928584-38.57142832 102.85714336-38.57142832c58.01785752 0 102.85714248 20.18571416 102.85714248 38.57142832s-44.83928584 38.57142832-102.85714248 38.57142832z m-2.12142832-307.9285708a12.85714248 12.85714248 0 0 1-1.60714336 18.1285708l-98.45357168 82.63928585a12.85714248 12.85714248 0 0 1-16.5535708-19.70357081l98.51785664-82.60714336a12.85714248 12.85714248 0 0 1 18.0964292 1.575z m71.13214248 34.90714248a12.85714248 12.85714248 0 0 1-1.60714248 18.12857168l-118.15714336 99.16071416a12.85714248 12.85714248 0 0 1-16.55357168-19.70357167l118.18928584-99.16071417a12.85714248 12.85714248 0 0 1 18.12857168 1.60714336z m63.45 25.71428584a12.85714248 12.85714248 0 0 1-1.575 18.12857168l-78.78214248 66.11785665a12.85714248 12.85714248 0 1 1-16.55357168-19.70357081l78.81428584-66.11785752a12.85714248 12.85714248 0 0 1 18.09642832 1.60714248z" fill="#FFFFFF" p-id="1792"></path></svg>