<?xml version="1.0" standalone="no"?><!DOCTYPE svg PUBLIC "-//W3C//DTD SVG 1.1//EN" "http://www.w3.org/Graphics/SVG/1.1/DTD/svg11.dtd"><svg t="1641700280447" class="icon" viewBox="0 0 1024 1024" version="1.1" xmlns="http://www.w3.org/2000/svg" p-id="4150" xmlns:xlink="http://www.w3.org/1999/xlink" width="200" height="200"><defs><style type="text/css"></style></defs><path d="M62 512a450 450 0 1 0 900 0 450 450 0 1 0-900 0z" fill="#E68CBF" p-id="4151"></path><path d="M430.421 496.893c-56.635-21.697-95.207-64.382-95.207-113.464 0-71.036 80.582-128.572 180-128.572s180 57.536 180 128.572c0 49.114-38.571 91.8-95.207 113.464 56.636 15.107 95.207 45 95.207 79.393v102.953c-0.096 49.661-80.678 89.904-180 89.904-98.678 0-178.778-39.697-180-88.875a45.932 45.932 0 0 1 0-2.25V576.286c0-34.393 38.572-64.286 95.207-79.393z m84.793-10.607c86.722 0 154.286-48.279 154.286-102.857 0-54.579-67.564-102.858-154.286-102.858S360.93 328.85 360.93 383.43c0 54.578 67.564 102.857 154.285 102.857zM638.13 613.379c19.767-11.122 31.371-24.365 31.371-37.093C669.5 545.62 602.257 512 515.214 512S360.93 545.621 360.93 576.286c0 12.728 11.571 25.971 31.371 37.093 27.868 15.685 72 27.192 122.914 27.192 50.882 0 95.047-11.507 122.915-27.192z m24.814 14.335c20.346 14.593 32.271 32.304 32.271 51.429 0-19.125-11.925-36.836-32.271-51.429z m-147.729-12.857c-58.018 0-102.857-20.186-102.857-38.571s44.84-38.572 102.857-38.572c58.018 0 102.857 20.186 102.857 38.572s-44.839 38.571-102.857 38.571z m-2.121-307.928a12.857 12.857 0 0 1-1.607 18.128l-98.454 82.64a12.857 12.857 0 0 1-16.553-19.704l98.517-82.607a12.857 12.857 0 0 1 18.097 1.575z m71.132 34.907a12.857 12.857 0 0 1-1.607 18.128L464.46 459.125a12.857 12.857 0 0 1-16.554-19.704l118.19-99.16a12.857 12.857 0 0 1 18.128 1.607z m63.45 25.714a12.857 12.857 0 0 1-1.575 18.129l-78.782 66.117a12.857 12.857 0 1 1-16.554-19.703l78.815-66.118a12.857 12.857 0 0 1 18.096 1.607z" fill="#FFFFFF" p-id="4152"></path></svg>