<?xml version="1.0" standalone="no"?><!DOCTYPE svg PUBLIC "-//W3C//DTD SVG 1.1//EN" "http://www.w3.org/Graphics/SVG/1.1/DTD/svg11.dtd"><svg t="1641700321968" class="icon" viewBox="0 0 1024 1024" version="1.1" xmlns="http://www.w3.org/2000/svg" p-id="4720" xmlns:xlink="http://www.w3.org/1999/xlink" width="200" height="200"><defs><style type="text/css"></style></defs><path d="M62 512a450 450 0 1 0 900 0 450 450 0 1 0-900 0z" fill="#80CCEC" p-id="4721"></path><path d="M704.471 379.764h-96.267v-61.618c0-16.939-14.465-30.792-32.079-30.792H447.811c-17.679 0-32.079 13.853-32.079 30.792v61.618h-96.268c-35.293 0-64.157 27.707-64.157 61.586v246.407c0 33.91 28.864 61.586 64.157 61.586h385.007c35.261 0 64.158-27.675 64.158-61.586V441.35c0-33.879-28.897-61.586-64.158-61.586z m-256.66-61.618h128.314v61.618H447.811v-61.618z m192.471 277.2h-96.236v92.411h-64.189v-92.41h-96.236V533.76h96.236V441.35h64.157v92.41h96.236v61.586z" fill="#FFFFFF" p-id="4722"></path></svg>