<?xml version="1.0" standalone="no"?><!DOCTYPE svg PUBLIC "-//W3C//DTD SVG 1.1//EN" "http://www.w3.org/Graphics/SVG/1.1/DTD/svg11.dtd"><svg t="1640786240042" class="icon" viewBox="0 0 1024 1024" version="1.1" xmlns="http://www.w3.org/2000/svg" p-id="1937" xmlns:xlink="http://www.w3.org/1999/xlink" width="200" height="200"><defs><style type="text/css"></style></defs><path d="M512 512m-450 0a450 450 0 1 0 900 0 450 450 0 1 0-900 0Z" fill="#80CCEC" p-id="1938"></path><path d="M704.47142833 379.76428584h-96.26785666V318.14642832c0-16.93928584-14.46428584-30.79285752-32.07857167-30.79285664h-128.31428584c-17.67857168 0-32.07857168 13.85357168-32.07857168 30.79285664v61.61785752H319.46428584c-35.29285752 0-64.15714248 27.70714248-64.15714336 61.58571416v246.40714248c0 33.91071416 28.86428584 61.58571416 64.15714336 61.58571504h385.00714248c35.26071416 0 64.15714248-27.675 64.15714335-61.58571504v-246.40714248c0-33.87857168-28.89642832-61.58571416-64.15714335-61.58571416z m-256.66071417-61.61785751h128.31428584v61.61785751h-128.31428584V318.14642832z m192.47142832 277.19999999h-96.23571416v92.41071416H479.85714248v-92.41071416h-96.23571416v-61.58571416H479.85714248v-92.41071416h64.15714336v92.41071416h96.23571416v61.58571416z" fill="#FFFFFF" p-id="1939"></path></svg>