<?xml version="1.0" standalone="no"?><!DOCTYPE svg PUBLIC "-//W3C//DTD SVG 1.1//EN" "http://www.w3.org/Graphics/SVG/1.1/DTD/svg11.dtd"><svg t="1640355957729" class="icon" viewBox="0 0 1024 1024" version="1.1" xmlns="http://www.w3.org/2000/svg" p-id="1311" xmlns:xlink="http://www.w3.org/1999/xlink" width="200" height="200"><defs><style type="text/css"></style></defs><path d="M370.91555591 311.75111147h555.2355552c13.65333333 0 22.7555552 31.85777813 22.7555552 68.26666666v505.17333334c0 36.40888853-9.10222187 68.26666667-22.7555552 68.26666666H370.91555591c-13.65333333 0-22.7555552-31.85777813-22.75555626-68.26666666V380.01777813c0-40.96 9.10222187-68.26666667 22.75555626-68.26666666z" fill="#ffffff" p-id="1312"></path><path d="M862.4355552 11.37777813H188.87111147C129.70666667 11.37777813 79.6444448 56.88888853 79.6444448 120.6044448v54.61333333c9.10222187 13.65333333 22.7555552 18.2044448 36.40888853 18.20444374 13.65333333-4.55111147 22.7555552-13.65333333 22.7555552-27.30666667v-31.85777707c0-36.40888853 31.85777813-63.7155552 63.71555627-63.71555626h646.25777707c36.40888853 0 68.26666667 31.85777813 68.26666666 63.71555626v714.52444374c0 36.40888853-31.85777813 68.26666667-68.26666666 68.26666666H202.5244448c-36.40888853 0-63.7155552-31.85777813-63.71555627-68.26666666v-27.30666667c0-13.65333333-13.65333333-27.30666668-27.30666666-27.30666667s-27.30666668 13.65333333-27.30666667 27.30666667v40.96c0 59.1644448 50.06222187 109.22666667 109.22666667 109.22666667h669.01333333c59.1644448 0 109.22666667-50.06222187 109.22666667-109.22666667V120.6044448C971.66222187 61.44 921.60000001 11.37777813 862.4355552 11.37777813z" fill="#333333" p-id="1313"></path><path d="M38.6844448 284.4444448h136.53333333c18.2044448 0 31.85777813 13.65333333 31.85777707 27.30666667 0 18.2044448-13.65333333 27.30666668-31.85777707 27.30666666h-136.53333333c-13.65333333 0-27.30666668-9.10222187-27.30666667-27.30666666 0-13.65333333 13.65333333-27.30666668 27.30666667-27.30666667z m0 177.49333333h136.53333333c13.65333333 0 27.30666668 13.65333333 27.30666667 27.30666667s-13.65333333 27.30666668-27.30666667 27.30666667h-136.53333333c-13.65333333 0-27.30666668-13.65333333-27.30666667-27.30666667s13.65333333-27.30666668 27.30666667-27.30666667z m0 177.49333334h136.53333333c13.65333333 0 27.30666668 13.65333333 27.30666667 27.30666666s-13.65333333 27.30666668-27.30666667 27.30666667h-136.53333333c-13.65333333 0-27.30666668-13.65333333-27.30666667-27.30666667s13.65333333-27.30666668 27.30666667-27.30666666z m646.25777707-109.22666667h-122.88v-72.81777813h127.43111146c13.65333333 0 22.7555552-9.10222187 22.7555552-22.7555552s-13.65333333-22.7555552-22.7555552-22.75555627h-118.32888853l95.57333333-100.12444373c9.10222187-9.10222187 9.10222187-22.7555552 0-31.85777814-9.10222187-9.10222187-22.7555552-9.10222187-31.85777813 0L539.30666668 375.46666666l-95.57333335-95.57333333c-9.10222187-9.10222187-22.7555552-9.10222187-31.85777813 0-13.65333333 4.55111147-13.65333333 22.7555552-4.5511104 31.85777814l95.57333333 100.12444373H389.12c-13.65333333 0-22.7555552 9.10222187-22.7555552 22.75555627s13.65333333 22.7555552 22.7555552 22.7555552H512v77.36888853H389.12c-13.65333333 0-22.7555552 9.10222187-22.7555552 22.75555627s13.65333333 22.7555552 22.7555552 22.7555552H512v141.0844448c0 13.65333333 9.10222187 22.7555552 22.7555552 22.7555552s22.7555552-13.65333333 22.75555627-22.7555552v-141.0844448h122.88c13.65333333 0 22.7555552-13.65333333 22.75555519-22.7555552 4.55111147-18.2044448-4.55111147-27.30666668-18.20444479-27.30666667z" fill="#333333" p-id="1314"></path></svg>