<?xml version="1.0" standalone="no"?><!DOCTYPE svg PUBLIC "-//W3C//DTD SVG 1.1//EN" "http://www.w3.org/Graphics/SVG/1.1/DTD/svg11.dtd"><svg t="1640786249236" class="icon" viewBox="0 0 1024 1024" version="1.1" xmlns="http://www.w3.org/2000/svg" p-id="2231" xmlns:xlink="http://www.w3.org/1999/xlink" width="200" height="200"><defs><style type="text/css"></style></defs><path d="M512 512m-450 0a450 450 0 1 0 900 0 450 450 0 1 0-900 0Z" fill="#8CA8E6" p-id="2232"></path><path d="M396.76785752 755.64285752A45.57857167 45.57857167 0 0 1 351.28571416 710.19285752V316.37857168c0-25.00714248 20.475-45.45 45.48214336-45.45h212.14285664c25.03928584 0 45.48214248 20.44285752 45.48214336 45.45v209.8285708c-10.44642832 0.675-20.57142832 2.475-30.31071504 5.2714292v-199.92857168H381.56428584v302.91428584h144.51428583a140.27142832 140.27142832 0 0 0 28.12500001 121.17857168h-157.43571416z m45.45-462.0214292v15.13928584h121.24285664v-15.10714248H442.25zM663.52142832 785.21428584a118.76785752 118.76785752 0 0 1-118.9285708-118.60714336 118.70357168 118.70357168 0 0 1 118.76785664-118.51071416c65.66785752 0 118.92857168 53.22857168 118.83214336 118.70357168a118.83214248 118.83214248 0 0 1-118.63928585 118.41428584h-0.03214335z m-4.82142832-36.45h11.44285752v-16.10357168c24.26785752-1.83214248 43.23214248-15.075 43.23214248-38.57142832 0-20.41071416-13.69285752-30.76071416-38.89285752-36.64285752l-4.33928496-1.0285708v-40.08214336c12.08571416 1.60714248 20.60357168 8.64642832 21.85714248 20.60357168h19.86428584c-0.77142833-21.66428584-17.93571416-36.03214248-41.72142832-37.92857168v-16.32857168h-11.41071504v16.2964292c-23.97857167 1.83214248-41.14285752 15.91071416-41.14285664 37.41428584 0 19.44642832 13.14642832 30.375 37.51071416 36.03214248l3.63214248 0.96428584v41.78571416c-15.23571416-1.60714248-22.43571416-9.83571416-24.17142832-21.08571416h-19.92857168c0.77142833 22.91785752 19.83214248 36.64285752 44.1 38.57142832v16.07142832z m-20.76428584-114.01071416c0-8.74285752 7.07142833-16.71428584 20.79642832-18.41785752v37.41428584c-15.13928584-3.85714248-20.79642832-10.28571416-20.79642832-18.99642832z m55.22142832 61.26428584c0 10.28571416-6.91071416 17.93571416-23.01428496 19.28571416v-39.31071416c17.55 4.17857167 23.01428584 10.06071416 23.01428496 20.025z" fill="#FFFFFF" p-id="2233"></path></svg>