<?xml version="1.0" standalone="no"?><!DOCTYPE svg PUBLIC "-//W3C//DTD SVG 1.1//EN" "http://www.w3.org/Graphics/SVG/1.1/DTD/svg11.dtd"><svg t="1641700330971" class="icon" viewBox="0 0 1024 1024" version="1.1" xmlns="http://www.w3.org/2000/svg" p-id="5005" xmlns:xlink="http://www.w3.org/1999/xlink" width="200" height="200"><defs><style type="text/css"></style></defs><path d="M62 512a450 450 0 1 0 900 0 450 450 0 1 0-900 0z" fill="#8CA8E6" p-id="5006"></path><path d="M396.768 755.643a45.579 45.579 0 0 1-45.482-45.45V316.379c0-25.008 20.475-45.45 45.482-45.45H608.91c25.039 0 45.482 20.442 45.482 45.45v209.828a143.09 143.09 0 0 0-30.31 5.272V331.55H381.563v302.914H526.08a140.271 140.271 0 0 0 28.125 121.179H396.768z m45.45-462.022v15.14H563.46v-15.107H442.25zM663.52 785.214a118.768 118.768 0 0 1-118.928-118.607 118.704 118.704 0 0 1 118.768-118.51c65.668 0 118.928 53.228 118.832 118.703a118.832 118.832 0 0 1-118.64 118.414h-0.032z m-4.821-36.45h11.443v-16.103c24.268-1.832 43.232-15.075 43.232-38.572 0-20.41-13.693-30.76-38.893-36.643l-4.34-1.028v-40.082c12.087 1.607 20.604 8.646 21.858 20.603h19.864c-0.771-21.664-17.935-36.032-41.721-37.928v-16.329h-11.41v16.297c-23.98 1.832-41.144 15.91-41.144 37.414 0 19.446 13.147 30.375 37.511 36.032l3.632 0.964v41.786c-15.236-1.607-22.436-9.836-24.171-21.086h-19.929c0.772 22.918 19.832 36.643 44.1 38.572v16.071z m-20.764-114.01c0-8.743 7.071-16.715 20.796-18.418v37.414c-15.14-3.857-20.796-10.286-20.796-18.996z m55.221 61.264c0 10.286-6.91 17.936-23.014 19.286v-39.311c17.55 4.178 23.014 10.06 23.014 20.025z" fill="#FFFFFF" p-id="5007"></path></svg>