<?xml version="1.0" standalone="no"?><!DOCTYPE svg PUBLIC "-//W3C//DTD SVG 1.1//EN" "http://www.w3.org/Graphics/SVG/1.1/DTD/svg11.dtd"><svg t="1641700381598" class="icon" viewBox="0 0 1024 1024" version="1.1" xmlns="http://www.w3.org/2000/svg" p-id="6725" xmlns:xlink="http://www.w3.org/1999/xlink" width="200" height="200"><defs><style type="text/css"></style></defs><path d="M519.1 55.651c-252.86 0-457.878 205.018-457.878 457.878 0 252.86 205.018 457.878 457.878 457.878 252.914 0 457.878-205.018 457.878-457.878 0.055-252.86-204.964-457.878-457.878-457.878z m198.028 421.014l-66.902 65.263a28.989 28.989 0 0 0-8.355 25.778l15.783 92.132c4.096 23.812-20.863 41.943-42.271 30.693l-82.74-43.472a28.989 28.989 0 0 0-27.087 0l-82.74 43.472c-21.353 11.25-46.312-6.881-42.27-30.693l15.783-92.132c1.638-9.449-1.53-19.06-8.356-25.778l-66.847-65.263c-17.257-16.82-7.755-46.203 16.111-49.643l92.46-13.435a28.896 28.896 0 0 0 21.9-15.947l41.343-83.832c10.704-21.627 41.56-21.627 52.21 0l41.343 83.832a29.338 29.338 0 0 0 21.9 15.947l92.515 13.435c23.975 3.44 33.532 32.768 16.22 49.643z" fill="#1195DB" p-id="6726"></path><path d="M928.754 308.948C853.606 158.816 698.45 55.65 519.154 55.65c-252.86 0-457.878 205.018-457.878 457.878 0 178.094 101.745 332.322 250.184 408.016 331.94-16.274 598.507-281.313 617.294-612.597zM337.237 426.967l92.46-13.435a28.896 28.896 0 0 0 21.9-15.947l41.343-83.831c10.704-21.627 41.56-21.627 52.21 0l41.343 83.831a29.338 29.338 0 0 0 21.9 15.947l92.515 13.435c23.866 3.495 33.423 32.823 16.11 49.644l-66.9 65.262a28.989 28.989 0 0 0-8.357 25.778l15.784 92.133c4.096 23.811-20.863 41.943-42.271 30.692l-82.74-43.472a28.989 28.989 0 0 0-27.088 0l-82.739 43.472c-21.354 11.25-46.312-6.936-42.27-30.692l15.783-92.133c1.638-9.448-1.53-19.06-8.356-25.778l-66.738-65.208c-17.312-16.875-7.755-46.203 16.111-49.698z" fill="#1195DB" p-id="6727"></path><path d="M519.1 55.651c-252.86 0-457.878 205.018-457.878 457.878 0 63.024 12.724 123.044 35.771 177.657 1.366 0 2.676 0.055 3.987 0.055 102.4 0 199.284-23.702 285.519-65.81l9.885-57.78c1.638-9.448-1.53-19.06-8.356-25.778l-66.902-65.208c-17.257-16.82-7.755-46.203 16.111-49.643l92.46-13.435a28.896 28.896 0 0 0 21.9-15.947l41.343-83.832c10.704-21.627 41.56-21.627 52.21 0l41.343 83.832a29.338 29.338 0 0 0 21.9 15.947l23.374 3.386A647.42 647.42 0 0 0 747.22 116.654c-67.066-38.72-144.944-61.003-228.12-61.003z" fill="#1195DB" p-id="6728"></path><path d="M65.973 448.212c215.613-43.254 392.67-193.004 473.989-392.015-6.881-0.328-13.817-0.546-20.808-0.546-230.741 0-421.505 170.612-453.181 392.56z" fill="#1195DB" p-id="6729"></path></svg>