<?xml version="1.0" standalone="no"?><!DOCTYPE svg PUBLIC "-//W3C//DTD SVG 1.1//EN" "http://www.w3.org/Graphics/SVG/1.1/DTD/svg11.dtd"><svg t="1640410806119" class="icon" viewBox="0 0 1024 1024" version="1.1" xmlns="http://www.w3.org/2000/svg" p-id="3101" xmlns:xlink="http://www.w3.org/1999/xlink" width="200" height="200"><defs><style type="text/css"></style></defs><path d="M519.09973333 55.65098667c-252.85973333 0-457.87818667 205.01845333-457.87818666 457.87818666 0 252.85973333 205.01845333 457.87818667 457.87818666 457.87818667 252.91434667 0 457.87818667-205.01845333 457.87818667-457.87818667 0.05461333-252.85973333-204.96384-457.87818667-457.87818667-457.87818666z m198.02794667 421.01418666l-66.90133333 65.26293334a28.98875733 28.98875733 0 0 0-8.35584 25.77749333l15.78325333 92.13269333c4.096 23.81141333-20.86229333 41.94304-42.27072 30.69269334l-82.7392-43.47221334a28.98875733 28.98875733 0 0 0-27.08821333 0l-82.7392 43.47221334c-21.35381333 11.25034667-46.31210667-6.88128-42.27072-30.69269334l15.78325333-92.13269333c1.6384-9.44810667-1.52917333-19.06005333-8.35584-25.77749333L321.1264 476.66517333c-17.25781333-16.82090667-7.75509333-46.20288 16.11093333-49.64352l92.46037334-13.43488a28.89591467 28.89591467 0 0 0 21.89994666-15.94709333l41.34229334-83.83146667c10.70421333-21.62688 41.56074667-21.62688 52.21034666 0l41.34229334 83.83146667a29.33828267 29.33828267 0 0 0 21.89994666 15.94709333l92.51498667 13.43488c23.97525333 3.44064 33.53258667 32.768 16.22016 49.64352z" fill="#1195db" p-id="3102"></path><path d="M928.75434667 308.94762667c-75.14794667-150.13205333-230.30442667-253.29664-409.6-253.29664-252.85973333 0-457.87818667 205.01845333-457.87818667 457.87818666 0 178.09408 101.74464 332.32213333 250.18368 408.01621334 331.93984-16.27477333 598.50752-281.31328 617.29450667-612.59776zM337.23733333 426.96704l92.46037334-13.43488a28.89591467 28.89591467 0 0 0 21.89994666-15.94709333l41.34229334-83.83146667c10.70421333-21.62688 41.56074667-21.62688 52.21034666 0l41.34229334 83.83146667a29.33828267 29.33828267 0 0 0 21.89994666 15.94709333l92.51498667 13.43488c23.86602667 3.49525333 33.42336 32.82261333 16.11093333 49.64352l-66.90133333 65.26293333a28.98875733 28.98875733 0 0 0-8.35584 25.77749334l15.78325333 92.13269333c4.096 23.81141333-20.86229333 41.94304-42.27072 30.69269333l-82.7392-43.47221333a28.98875733 28.98875733 0 0 0-27.08821333 0l-82.7392 43.47221333c-21.35381333 11.25034667-46.31210667-6.93589333-42.27072-30.69269333l15.78325333-92.13269333c1.6384-9.44810667-1.52917333-19.06005333-8.35584-25.77749334L321.1264 476.66517333c-17.31242667-16.87552-7.75509333-46.20288 16.11093333-49.69813333z" fill="#1195db" p-id="3103"></path><path d="M519.09973333 55.65098667c-252.85973333 0-457.87818667 205.01845333-457.87818666 457.87818666 0 63.02378667 12.72490667 123.04384 35.77173333 177.65717334 1.36533333 0 2.67605333 0.05461333 3.98677333 0.05461333 102.4 0 199.28405333-23.70218667 285.51850667-65.80906667l9.88501333-57.78090666c1.6384-9.44810667-1.52917333-19.06005333-8.35584-25.77749334L321.1264 476.66517333c-17.25781333-16.82090667-7.75509333-46.20288 16.11093333-49.64352l92.46037334-13.43488a28.89591467 28.89591467 0 0 0 21.89994666-15.94709333l41.34229334-83.83146667c10.70421333-21.62688 41.56074667-21.62688 52.21034666 0l41.34229334 83.83146667a29.33828267 29.33828267 0 0 0 21.89994666 15.94709333l23.37450667 3.38602667a647.41922133 647.41922133 0 0 0 115.45258667-300.31872c-67.06517333-38.72085333-144.94378667-61.00309333-228.11989334-61.00309333z" fill="#1195db" p-id="3104"></path><path d="M65.97290667 448.21162667c215.61344-43.25376 392.66986667-193.00352 473.98912-392.01450667-6.88128-0.32768-13.81717333-0.54613333-20.80768-0.54613333-230.74133333 0-421.50570667 170.61205333-453.18144 392.56064z" fill="#1195db" p-id="3105"></path></svg>