<?xml version="1.0" standalone="no"?><!DOCTYPE svg PUBLIC "-//W3C//DTD SVG 1.1//EN" "http://www.w3.org/Graphics/SVG/1.1/DTD/svg11.dtd"><svg t="1640410861761" class="icon" viewBox="0 0 1024 1024" version="1.1" xmlns="http://www.w3.org/2000/svg" p-id="3830" xmlns:xlink="http://www.w3.org/1999/xlink" width="200" height="200"><defs><style type="text/css"></style></defs><path d="M509.76085333 513.20149333m-480.8704 0a480.8704 480.8704 0 1 0 961.7408 0 480.8704 480.8704 0 1 0-961.7408 0Z" fill="#FF9552" p-id="3831"></path><path d="M753.60938667 236.91264H247.56224c-15.01866667 0-28.99968 8.13738667-36.37248 21.24458667a41.90481067 41.90481067 0 0 0 0.60074667 42.10688l32.60416 54.0672-38.77546667 60.40234666a41.762816 41.762816 0 0 0 0.54613333 45.92981334l35.55328 52.64725333-36.42709333 58.43626667a41.79012267 41.79012267 0 0 0 1.09226667 45.8752l36.31786666 52.64725333-30.36501333 48.98816c-7.97354667 12.88874667-8.35584 29.10890667-0.98304 42.37994667s21.35381333 21.46304 36.53632 21.46304h505.77408c49.75274667 0 90.27584-40.46848 90.27584-90.27584V327.13386667c-0.05461333-49.75274667-40.52309333-90.22122667-90.33045333-90.22122667z m-355.42357334 446.73706667c0 19.60618667-13.98101333 35.49866667-31.23882666 35.49866666s-31.23882667-15.89248-31.23882667-35.49866666V336.36352c0-19.60618667 13.98101333-35.49866667 31.23882667-35.49866667s31.23882667 15.89248 31.23882666 35.49866667v347.28618667z m307.2-175.80032h-65.97290666v30.74730666h54.01258666a35.49866667 35.49866667 0 1 1 0 70.99733334h-54.01258666v24.73984a35.49866667 35.49866667 0 1 1-70.99733334 0v-24.73984h-55.97866666a35.49866667 35.49866667 0 1 1 0-70.99733334h55.97866666v-30.74730666H500.5312a35.49866667 35.49866667 0 1 1 0-70.99733334h37.41013333l-27.90741333-24.52138666c-14.7456-12.94336-16.22016-35.33482667-3.2768-50.08042667s35.38944-16.22016 50.08042667-3.2768l46.31210666 40.63232 42.5984-39.86773333c14.30869333-13.38026667 36.75477333-12.67029333 50.18965334 1.6384s12.67029333 36.75477333-1.6384 50.18965333l-26.97898667 25.28597333h38.06549333a35.49866667 35.49866667 0 1 1 0 70.99733334z" fill="#FFFFFF" p-id="3832"></path></svg>