<?xml version="1.0" standalone="no"?><!DOCTYPE svg PUBLIC "-//W3C//DTD SVG 1.1//EN" "http://www.w3.org/Graphics/SVG/1.1/DTD/svg11.dtd"><svg t="1640410855740" class="icon" viewBox="0 0 1024 1024" version="1.1" xmlns="http://www.w3.org/2000/svg" p-id="3687" xmlns:xlink="http://www.w3.org/1999/xlink" width="200" height="200"><defs><style type="text/css"></style></defs><path d="M716.44325469 602.67451813h47.7944325v51.32762343h-47.7944325zM654.93361906 602.67451813h47.7944325v51.32762343h-47.7944325zM596.05781563 602.67451813h47.7944325v51.32762343h-47.7944325z" fill="#d4237a" p-id="3688"></path><path d="M512 32a480 480 0 1 0 480 480A480 480 0 0 0 512 32z m321.68094187 651.23126344c0 29.93576063-26.17773 54.60385406-58.10492437 54.60385406H247.36402531c-31.959315 0-57.97644562-24.53961469-57.97644468-54.60385406v-229.33618875h644.32548187z m0-281.01713063H189.35546v-61.0278375c0-29.93576063 26.17773-54.60385406 57.97644562-54.60385406H775.5760175c31.959315 0 58.10492531 24.53961469 58.10492438 54.60385406z" fill="#d4237a" p-id="3689"></path></svg>