<?xml version="1.0" standalone="no"?><!DOCTYPE svg PUBLIC "-//W3C//DTD SVG 1.1//EN" "http://www.w3.org/Graphics/SVG/1.1/DTD/svg11.dtd"><svg t="1640679302929" class="icon" viewBox="0 0 1024 1024" version="1.1" xmlns="http://www.w3.org/2000/svg" p-id="1333" xmlns:xlink="http://www.w3.org/1999/xlink" width="200" height="200"><defs><style type="text/css"></style></defs><path d="M511.84128 512m-450.56 0a450.56 450.56 0 1 0 901.12 0 450.56 450.56 0 1 0-901.12 0Z" fill="#F39691" p-id="1334"></path><path d="M587.4432 583.99744m-346.63936 0a346.63936 346.63936 0 1 0 693.27872 0 346.63936 346.63936 0 1 0-693.27872 0Z" fill="#F28281" p-id="1335"></path><path d="M481.65888 486.2208a245.248 245.248 0 1 1 0.03072 346.77248 245.20704 245.20704 0 0 1-0.03072-346.77248z" fill="#F06D71" p-id="1336"></path><path d="M762.88 740.2496l-65.89952-65.18784a255.60064 255.60064 0 1 0-190.12096 85.20192 254.0288 254.0288 0 0 0 162.0736-58.31168L735.6928 768zM289.59232 503.00416a217.25696 217.25696 0 1 1 217.25184 218.33216 218.04032 218.04032 0 0 1-217.25184-218.33216z m291.75296-96.17408l-26.4704-28.42112L505.9584 424.448l-52.64896-46.45888-25.5488 29.25568 53.57056 47.25248H409.8048v38.912h77.20448v25.8048h-66.048v38.912h66.048v67.82976h38.7328v-67.79392h64.23552v-38.912h-64.23552v-25.8048H601.088v-38.912h-70.42048z" fill="#FFFFFF" p-id="1337"></path></svg>