<?xml version="1.0" standalone="no"?><!DOCTYPE svg PUBLIC "-//W3C//DTD SVG 1.1//EN" "http://www.w3.org/Graphics/SVG/1.1/DTD/svg11.dtd"><svg t="1640410759221" class="icon" viewBox="0 0 1024 1024" version="1.1" xmlns="http://www.w3.org/2000/svg" p-id="1949" xmlns:xlink="http://www.w3.org/1999/xlink" width="200" height="200"><defs><style type="text/css"></style></defs><path d="M494.08 513.88416m-471.1424 0a471.1424 471.1424 0 1 0 942.2848 0 471.1424 471.1424 0 1 0-942.2848 0Z" fill="#db639b" p-id="1950"></path><path d="M506.68544 259.06176c29.824-0.00512 54.00576-24.17664 54.00576-54.016 0-29.82912-24.18176-54.00064-54.00576-54.00576-29.83424 0.00512-54.00576 24.17664-54.016 54.00576 0.01024 29.83936 24.18176 54.00576 54.016 54.016z m-122.90048 328.67328c-20.47488 24.83712-49.21856 32.25088-90.14272 32.21504-16.77824 0-32.64-2.92864-47.03744-8.04864l-20.78208-7.40352 59.1104 208.73216h443.49952l58.24512-205.68064-20.70016 7.26528c-14.208 4.992-31.34976 5.9904-47.89248 5.9904-41.46688 0.03584-78.96576-15.84128-94.29504-41.98912l-7.78752-10.16832-10.56256 12.48256c-20.80256 23.36256-57.69216 41.5232-98.75456 41.49248-40.10496 0.03072-79.5648-9.856-100.28544-34.45248l-11.30496-26.88c-0.48128-1.13152-11.31008 26.4448-11.31008 26.4448z" fill="#FFFFFF" p-id="1951"></path><path d="M752.74752 304.72704C678.31296 258.56 620.38528 241.69472 576.8192 238.1824c0 0-21.2224 37.96992-69.9392 38.9888S432.9472 238.1824 432.9472 238.1824s-319.6672 49.8176-277.25824 265.11872c3.67616 18.688 30.1568 64.70656 82.26816 85.07904 48.53248 18.9696 121.21088 11.6224 156.20096-38.83008 0 0 113.9968 111.77984 221.69088 2.56 0 0 82.12992 96.01536 192.31232 16.67072 108.31872-78.00832 19.0208-217.88672-55.41376-264.05376z m-474.89536 257.12128c-52.352 0-97.024-33.10592-114.7136-79.7184 25.33376 37.30944 67.81952 61.7984 115.97824 61.7984 44.5952 0 84.31104-21.01248 110.06464-53.74464-19.57376 42.32704-62.04928 71.66464-111.32928 71.66464z m227.26656 8.64256c-52.90496 0-98.05824-33.10592-115.93728-79.7184 25.60512 37.30944 68.54656 61.7984 117.21728 61.7984 45.06624 0 85.20704-21.01248 111.23712-53.74464-19.77856 42.32192-62.70976 71.66464-112.51712 71.66464z m227.23072 8.32c-52.352 0-97.01888-33.10592-114.70848-79.7184 25.33376 37.30944 67.81952 61.7984 115.97824 61.7984 44.59008 0 84.31104-21.01248 110.05952-53.74464-19.56864 42.32192-62.04928 71.66464-111.32928 71.66464z" fill="#FFFFFF" p-id="1952"></path></svg>