<?xml version="1.0" standalone="no"?><!DOCTYPE svg PUBLIC "-//W3C//DTD SVG 1.1//EN" "http://www.w3.org/Graphics/SVG/1.1/DTD/svg11.dtd"><svg t="1641700378009" class="icon" viewBox="0 0 1024 1024" version="1.1" xmlns="http://www.w3.org/2000/svg" p-id="6581" xmlns:xlink="http://www.w3.org/1999/xlink" width="200" height="200"><defs><style type="text/css"></style></defs><path d="M74.83770833 513.76625a441.695625 441.695625 0 1 0 883.39125 0 441.695625 441.695625 0 1 0-883.39125 0z" fill="#DB639B" p-id="6582"></path><path d="M528.35052083 274.870625c27.96-0.0046875 50.630625-22.6659375 50.630625-50.64 0-27.965625-22.670625-50.625-50.630625-50.630625-27.969375 0.0046875-50.6296875 22.6659375-50.64 50.630625 0.009375 27.975 22.670625 50.630625 50.64 50.64z m-115.21875 308.1309375c-19.1953125 23.2846875-46.1428125 30.234375-84.5090625 30.2015625-15.729375 0-30.6-2.7459375-44.0971875-7.5459375l-19.483125-6.9403125 55.415625 195.68625h415.78125l54.6046875-192.825-19.40625 6.8109375c-13.32 4.68-29.390625 5.615625-44.8996875 5.615625-38.8753125 0.03375-74.030625-14.8509375-88.4015625-39.3646875l-7.3003125-9.5325-9.9028125 11.701875c-19.5028125 21.9028125-54.08625 38.9278125-92.5828125 38.8996875-37.5984375 0.028125-74.59125-9.24-94.0171875-32.2996875l-10.5984375-25.2c-0.4509375-1.0603125-10.603125 24.7921875-10.603125 24.7921875z" fill="#FFFFFF" p-id="6583"></path><path d="M759.03458333 317.6815625c-69.7828125-43.2815625-124.0903125-59.0925-164.9334375-62.3859375 0 0-19.895625 35.596875-65.5678125 36.553125s-69.3121875-36.553125-69.3121875-36.553125S159.53333333 302 199.29270833 503.845625c3.44625 17.5190625 28.2721875 60.661875 77.12625 79.760625 45.4996875 17.784375 113.6353125 10.8965625 146.4384375-36.403125 0 0 106.8721875 104.79375 207.8353125 2.4 0 0 76.996875 90.0140625 180.2925 15.628125 101.5490625-73.1325 17.8321875-204.268125-51.9496875-247.5496875zM313.81958333 558.7325c-49.08 0-90.96-31.036875-107.5434375-74.735625 23.7496875 34.978125 63.58125 57.935625 108.729375 57.935625 41.8078125 0 79.040625-19.69875 103.185-50.385-18.3496875 39.6815625-58.1709375 67.185-104.3709375 67.185z m213.0628125 8.1028125c-49.5984375 0-91.9303125-31.036875-108.691875-74.7365625 24.005625 34.978125 64.2628125 57.9365625 109.891875 57.9365625 42.249375 0 79.8815625-19.6996875 104.2846875-50.3859375-18.5428125 39.676875-58.790625 67.1859375-105.4846875 67.1859375z m213.028125 7.8c-49.08 0-90.954375-31.036875-107.53875-74.7365625 23.750625 34.978125 63.58125 57.9365625 108.729375 57.9365625 41.803125 0 79.0415625-19.6996875 103.18125-50.3859375-18.3459375 39.676875-58.171875 67.1859375-104.371875 67.1859375z" fill="#FFFFFF" p-id="6584"></path></svg>