<?xml version="1.0" standalone="no"?><!DOCTYPE svg PUBLIC "-//W3C//DTD SVG 1.1//EN" "http://www.w3.org/Graphics/SVG/1.1/DTD/svg11.dtd"><svg t="1640355944610" class="icon" viewBox="0 0 1024 1024" version="1.1" xmlns="http://www.w3.org/2000/svg" p-id="1024" xmlns:xlink="http://www.w3.org/1999/xlink" width="200" height="200"><defs><style type="text/css"></style></defs><path d="M892.04302855 28.52753923H131.95697145c-56.92627596 0-103.4294322 46.50315503-103.42943222 103.42943222v759.28427876c0 56.92627596 46.50315503 103.4294322 103.42943222 103.42943221h759.28427876c56.92627596 0 103.4294322-46.50315503 103.42943221-103.42943221V131.95697145c0.80177835-56.92627596-45.70137668-103.4294322-102.62765387-103.42943222z m34.4764774 863.51548932c0 19.24268517-15.23379222 34.47647741-34.4764774 34.4764774H131.95697145c-19.24268517 0-34.47647741-15.23379222-34.4764774-34.4764774V131.95697145c0-19.24268517 15.23379222-34.47647741 34.4764774-34.4764774h759.28427876c19.24268517 0 34.47647741 15.23379222 34.4764774 34.4764774v760.0860571z" fill="#333333" p-id="1025"></path><path d="M356.45496313 615.4294322c19.24268517 0 34.47647741-15.23379222 34.47647739-34.47647739V459.88439533c0-19.24268517-15.23379222-34.47647741-34.47647739-34.4764774s-34.47647741 15.23379222-34.4764774 34.4764774v121.06855948c0 19.24268517 15.23379222 34.47647741 34.4764774 34.47647739zM512 615.4294322c19.24268517 0 34.47647741-15.23379222 34.47647741-34.47647739V425.40791793c0-19.24268517-15.23379222-34.47647741-34.47647741-34.47647741s-34.47647741 15.23379222-34.47647741 34.47647741v155.54503688c0 19.24268517 15.23379222 34.47647741 34.47647741 34.47647739zM684.38238701 615.4294322c19.24268517 0 34.47647741-15.23379222 34.47647741-34.47647739v-224.49799168c0-19.24268517-15.23379222-34.47647741-34.47647741-34.4764774s-34.47647741 15.23379222-34.4764774 34.4764774v224.49799168c0 19.24268517 15.23379222 34.47647741 34.4764774 34.47647739zM753.33534181 649.90590961H270.66465819c-19.24268517 0-34.47647741 15.23379222-34.4764762 34.4764774s15.23379222 34.47647741 34.4764762 34.47647741h483.47246197c19.24268517 0 34.47647741-15.23379222 34.4764774-34.47647741-0.80177835-19.24268517-16.03557057-34.47647741-35.27825575-34.4764774z" fill="#2c2c2c" p-id="1026"></path></svg>