<?xml version="1.0" standalone="no"?><!DOCTYPE svg PUBLIC "-//W3C//DTD SVG 1.1//EN" "http://www.w3.org/Graphics/SVG/1.1/DTD/svg11.dtd"><svg t="1640410788248" class="icon" viewBox="0 0 1024 1024" version="1.1" xmlns="http://www.w3.org/2000/svg" p-id="2673" xmlns:xlink="http://www.w3.org/1999/xlink" width="200" height="200"><defs><style type="text/css"></style></defs><path d="M391.175 227h-37.5a41.25 41.25 0 0 0-41.25 41.25v312.6l78.75-42z m213.75 345L525.125 633.1625a22.5 22.5 0 0 1-25.2 0.225L411.6875 579.1625l-90 48.0375c7.5 18.75 18.45 37.0125 30.375 47.8875l100.95 89.325a87.1125 87.1125 0 0 1 112.125-3.3l105.6375-88.2375c12.5625-10.6125 24.075-28.8375 31.65-47.8125l-93.3375-51.8625a22.9875 22.9875 0 0 1-4.275-0.975z m65.625-345H634.4375v308.25l77.2125 42.9V268.25A41.25 41.25 0 0 0 670.4375 227zM512 32a480 480 0 1 0 480 480A480 480 0 0 0 512 32z m244.725 553.35a135.5625 135.5625 0 0 1-4.0875 31.3875 22.5 22.5 0 0 1-1.9875 7.0875c-9.1875 32.1-28.05 64.5375-50.55 83.55l-126.75 112.8a97.5 97.5 0 0 1-125.55-2.2125L321.8375 708.5375c-30.6-27.75-54.5625-81.9-54.5625-123.1875V268.25c0-47.5875 38.7-86.25 89.2875-86.25h316.875c44.55 0 83.25 38.7 83.25 86.25z m-167.55-57.15V227h-152.8125v314.175l75.6375 46.125z" fill="#7dc5eb" p-id="2674"></path></svg>