<?xml version="1.0" standalone="no"?><!DOCTYPE svg PUBLIC "-//W3C//DTD SVG 1.1//EN" "http://www.w3.org/Graphics/SVG/1.1/DTD/svg11.dtd"><svg t="1641700284343" class="icon" viewBox="0 0 1024 1024" version="1.1" xmlns="http://www.w3.org/2000/svg" p-id="4293" xmlns:xlink="http://www.w3.org/1999/xlink" width="200" height="200"><defs><style type="text/css"></style></defs><path d="M398.7265625 244.8125h-35.15625a38.671875 38.671875 0 0 0-38.671875 38.671875v293.0625l73.828125-39.375z m200.390625 323.4375l-74.8125 57.3403125a21.09375 21.09375 0 0 1-23.625 0.2109375l-82.723125-50.836875-84.375 45.035625c7.03125 17.578125 17.296875 34.6996875 28.4765625 44.895l94.640625 83.7421875a81.6675 81.6675 0 0 1 105.1171875-3.09375l99.035625-82.723125c11.7778125-9.94875 22.5703125-27.0346875 29.671875-44.82375L603.02 569.375a21.55125 21.55125 0 0 1-4.0078125-0.9140625z m61.5234375-323.4375h-33.855v288.984375l72.38625 40.21875v-290.53125A38.671875 38.671875 0 0 0 660.535625 244.8125zM512 62a450 450 0 1 0 450 450A450 450 0 0 0 512 62z m229.4296875 518.765625a127.0903125 127.0903125 0 0 1-3.8325 29.4253125 21.09375 21.09375 0 0 1-1.8628125 6.645c-8.6128125 30.09375-26.296875 60.5034375-47.390625 78.328125l-118.828125 105.75a91.40625 91.40625 0 0 1-117.703125-2.07375L333.7221875 696.254375c-28.6875-26.015625-51.151875-76.78125-51.151875-115.48875v-297.28125c0-44.6128125 36.28125-80.859375 83.7065625-80.859375h297.0703125c41.765625 0 78.046875 36.28125 78.046875 80.859375z m-157.078125-53.578125V244.8125H441.089375v294.5390625L512 582.59375z" fill="#7DC5EB" p-id="4294"></path></svg>