<?xml version="1.0" standalone="no"?><!DOCTYPE svg PUBLIC "-//W3C//DTD SVG 1.1//EN" "http://www.w3.org/Graphics/SVG/1.1/DTD/svg11.dtd"><svg t="1641700359819" class="icon" viewBox="0 0 1024 1024" version="1.1" xmlns="http://www.w3.org/2000/svg" p-id="6009" xmlns:xlink="http://www.w3.org/1999/xlink" width="200" height="200"><defs><style type="text/css"></style></defs><path d="M63.44228516 507.68457031a442.81494141 442.81494141 0 1 0 885.62988281 0 442.81494141 442.81494141 0 1 0-885.62988281 0z" fill="#29CCA4" p-id="6010"></path><path d="M712.61210938 394.89541016H703.52246094v-45.63544922a48.60703125 48.60703125 0 0 0-24.48632813-39.54726563s-48.46025391-24.23759766-166.97021484-24.23759765c-118.49414063 0-167.02734375 24.23759766-167.02734375 24.23759765a48.60703125 48.60703125 0 0 0-24.48808594 39.54726563v45.63544922H311.43359375a27.44296875 27.44296875 0 0 0-27.38496094 27.31113281v27.37001953a27.44296875 27.44296875 0 0 0 27.37001953 27.38496094h9.10371094v186.92578125a27.52382813 27.52382813 0 0 0 18.2663086 25.78183593v15.25166016a36.47373047 36.47373047 0 1 0 72.94658203 0v-13.64853516h200.5461914v13.64853516a36.47373047 36.47373047 0 1 0 72.94658203 0v-15.25166016a27.53173828 27.53173828 0 0 0 18.2663086-25.78095703V476.96152344h9.10371093a27.44296875 27.44296875 0 0 0 27.36914063-27.38496094v-27.36914063a27.53173828 27.53173828 0 0 0-27.36914063-27.31201171h0.01494141z m-291.78808594-63.8288086a9.16259766 9.16259766 0 0 1 9.11777344-9.11777344h164.13134765a9.19335938 9.19335938 0 0 1 9.11777344 9.11777344v18.19335938a9.14765625 9.14765625 0 0 1-9.11777344 9.16259765H429.94179687a9.14765625 9.14765625 0 0 1-9.08876953-9.16259765v-18.19335938h-0.0290039zM379.82041016 654.76953125a22.82519531 22.82519531 0 1 1-0.02988282-45.63632812 22.82519531 22.82519531 0 0 1 0.02988282 45.63632812z m264.37412109 0a22.82519531 22.82519531 0 1 1 0-45.63632812 22.82519531 22.82519531 0 0 1 0 45.63632812z m22.82519531-104.86142578a9.16259766 9.16259766 0 0 1-9.10371094 9.10371094H366.12792969a9.16259766 9.16259766 0 0 1-9.16259766-9.10371094V404.0140625a9.16259766 9.16259766 0 0 1 9.16259766-9.11865234h291.78808594c5.01503906 0.04394531 9.07470703 4.10361328 9.10371093 9.11865234v145.89404297z" fill="#FFFFFF" p-id="6011"></path></svg>