<?xml version="1.0" standalone="no"?><!DOCTYPE svg PUBLIC "-//W3C//DTD SVG 1.1//EN" "http://www.w3.org/Graphics/SVG/1.1/DTD/svg11.dtd"><svg t="1641700364690" class="icon" viewBox="0 0 1024 1024" version="1.1" xmlns="http://www.w3.org/2000/svg" p-id="6152" xmlns:xlink="http://www.w3.org/1999/xlink" width="200" height="200"><defs><style type="text/css"></style></defs><path d="M62 512a450 450 0 1 0 900 0 450 450 0 1 0-900 0z" fill="#36AB60" p-id="6153"></path><path d="M405.9284375 820.5715625c-12.856875 0-25.71375-6.4284375-32.143125-19.28625l-16.070625-22.5-3.2146875-6.4284375-32.143125-51.4284375c-38.5715625-22.5-80.356875-48.21375-83.5715625-54.643125-9.6421875-6.4284375-16.070625-19.2853125-16.070625-32.1421875 0-9.643125 6.4284375-22.5 12.856875-28.9284375L238.784375 602c12.8578125-12.856875 25.7146875-19.2853125 41.78625-19.2853125h70.71375l38.5715625-38.5715625-9.6421875-3.2146875c-51.429375-19.2853125-115.7146875-41.7853125-118.929375-45-12.856875-6.4284375-25.71375-19.2853125-25.71375-32.143125s3.21375-28.9284375 12.856875-38.570625c0 0 25.7146875-25.7146875 38.5715625-35.3578125C296.643125 380.215625 309.5 377 325.5715625 377h3.21375l106.0715625 6.4284375 109.28625 6.4284375L647 290.215625c19.2853125-22.5 48.2146875-35.3578125 80.356875-35.3578125h3.2146875c16.0715625 0 35.356875 6.4284375 48.21375 19.28625 12.8578125 12.856875 16.0715625 28.9284375 16.0715625 48.21375 0 28.9284375-12.856875 57.8578125-35.356875 80.3578125L656.643125 505.5715625v3.21375c0 25.7146875 3.21375 67.5 6.4284375 102.8578125l3.21375 51.4284375c0 19.2853125 3.2146875 28.9284375 3.2146875 38.5715625v16.0715625c0 16.070625-3.2146875 28.9284375-12.856875 41.7853125-9.643125 9.643125-25.7146875 28.9284375-35.3578125 38.5715625-9.6421875 9.643125-22.5 16.0715625-35.356875 16.0715625h-3.21375c-16.0715625-3.2146875-28.929375-12.8578125-32.143125-25.7146875-3.2146875-6.4284375-25.7146875-67.5-45-118.9284375l-3.2146875-9.643125-38.5715625 38.5715625v67.5c0 16.0715625-6.4284375 32.143125-19.2853125 45-16.0715625 3.2146875-25.7146875 9.643125-38.5715625 9.643125z m-57.856875-118.9284375c3.21375 6.4284375 12.856875 19.2853125 19.2853125 32.1421875l12.8578125 22.5 3.21375 6.429375L399.5 791.643125l3.2146875-3.2146875c3.21375 0 6.4284375-3.21375 6.4284375-3.21375 6.4284375-6.429375 9.6421875-12.8578125 9.6421875-22.5v-83.5715625l83.5715625-80.3578125 9.643125 22.5c16.0715625 48.2146875 51.4284375 144.643125 54.643125 151.0715625 0 0 0 3.2146875 3.21375 3.2146875l3.2146875 3.21375h3.21375c3.2146875 0 6.429375-3.21375 9.643125-6.4284375v-3.21375c6.4284375-6.4284375 22.5-25.7146875 32.143125-35.3578125C621.284375 727.356875 624.5 720.9284375 624.5 714.5v-22.5c0-9.643125 0-19.2853125-3.2146875-28.9284375l-3.21375-51.4284375c-3.2146875-51.4284375-6.4284375-90-6.4284375-112.5v-6.4284375l112.5-112.5c16.0715625-12.8578125 22.5-35.3578125 25.71375-54.643125 0-9.643125-3.21375-16.0715625-6.4284375-25.7146875-6.4284375-3.21375-16.0715625-6.4284375-22.5-6.4284375h-3.21375c-22.5 0-41.78625 9.643125-54.643125 25.7146875l-112.5 112.5h-6.4284375l-115.7146875-6.4284375-102.856875-6.429375h-3.2146875c-6.4284375 0-12.856875 3.2146875-16.0715625 6.429375-9.6421875 9.6421875-32.1421875 28.9284375-35.356875 32.1421875-3.21375 3.2146875-3.21375 6.4284375-6.4284375 9.643125v3.2146875l3.2146875 3.21375 3.21375 3.2146875c6.4284375 3.21375 99.643125 38.5715625 151.0715625 54.6421875l22.5 9.643125L360.9284375 624.5h-83.5715625l-19.2853125 9.643125c-3.2146875 3.21375-3.2146875 3.21375-3.2146875 6.4284375v3.21375l3.2146875 3.2146875c6.4284375 3.2146875 48.21375 32.143125 86.7853125 54.643125h3.2146875z" fill="#FFFFFF" p-id="6154"></path></svg>