<?xml version="1.0" standalone="no"?><!DOCTYPE svg PUBLIC "-//W3C//DTD SVG 1.1//EN" "http://www.w3.org/Graphics/SVG/1.1/DTD/svg11.dtd"><svg t="1640410794241" class="icon" viewBox="0 0 1024 1024" version="1.1" xmlns="http://www.w3.org/2000/svg" p-id="2815" xmlns:xlink="http://www.w3.org/1999/xlink" width="200" height="200"><defs><style type="text/css"></style></defs><path d="M512 512m-480 0a480 480 0 1 0 960 0 480 480 0 1 0-960 0Z" fill="#36ab60" p-id="2816"></path><path d="M398.85714313 841.14285687c-13.71428531 0-27.42857156-6.85714313-34.28571469-20.57142843l-17.14285688-24-3.42857156-6.85714313-34.28571469-54.85714218c-41.14285687-24-85.71428531-51.42857156-89.14285687-58.28571469-10.28571469-6.85714313-17.14285687-20.57142844-17.14285688-34.28571375 0-10.28571469 6.85714313-24 13.71428531-30.85714313l3.42857157-3.42857156c13.71428531-13.71428531 27.42857156-20.57142844 44.57142843-20.57142844h75.42857157l41.14285687-41.14285687-10.28571375-3.42857156c-54.85714313-20.57142844-123.42857156-44.57142844-126.85714312-48-13.71428531-6.85714313-27.42857156-20.57142844-27.42857157-34.28571469s3.42857156-30.85714313 13.71428624-41.14285688c0 0 27.42857156-27.42857156 41.14285689-37.71428625 10.28571469-10.28571469 24-13.71428531 41.14285687-13.71428531h3.42857157l113.14285687 6.85714313 116.57142938 6.85714218 109.71428531-106.28571375c20.57142844-24 51.42857156-37.71428531 85.71428531-37.71428625h3.42857158c17.14285687 0 37.71428531 6.85714313 51.42857155 20.57142938 13.71428531 13.71428531 17.14285687 30.85714313 17.14285687 51.42857062 0 30.85714313-13.71428531 61.71428531-37.71428531 85.71428625l-109.71428531 109.71428531v3.42857157c0 27.42857156 3.42857156 72 6.8571422 109.71428625l3.42857155 54.85714218c0 20.57142844 3.42857156 30.85714313 3.42857156 41.14285782v17.14285687c0 17.14285687-3.42857156 30.85714313-13.71428531 44.57142844-10.28571469 10.28571469-27.42857156 30.85714313-37.71428625 41.14285687-10.28571469 10.28571469-24 17.14285687-37.71428531 17.14285782h-3.42857157c-17.14285687-3.42857156-30.85714313-13.71428531-34.28571467-27.42857156-3.42857156-6.85714313-27.42857156-72-48-126.85714313l-3.42857158-10.28571469-41.14285687 41.14285782v72c0 17.14285687-6.85714313 34.28571469-20.57142844 48-17.14285687 3.42857156-27.42857156 10.28571469-41.14285687 10.28571374z m-61.71428626-126.85714218c3.42857156 6.85714313 13.71428531 20.57142844 20.57142844 34.28571375l13.71428625 24 3.42857155 6.85714312 17.14285689 30.85714313 3.42857156-3.42857156c3.42857156 0 6.85714313-3.42857156 6.85714313-3.42857157 6.85714313-6.85714313 10.28571469-13.71428531 10.28571375-24v-89.14285687l89.14285687-85.71428625 10.28571469 24c17.14285687 51.42857156 54.85714313 154.28571469 58.28571469 161.14285687 0 0 0 3.42857156 3.42857062 3.42857158l3.42857156 3.42857155h3.42857157c3.42857156 0 6.85714313-3.42857156 10.28571467-6.85714313v-3.42857062c6.85714313-6.85714313 24-27.42857156 34.28571376-37.71428625 3.42857156-6.85714313 6.85714313-13.71428531 6.85714313-20.57142844v-24c0-10.28571469 0-20.57142844-3.42857156-30.85714311l-3.42857157-54.8571422c-3.42857156-54.85714313-6.85714313-96-6.85714218-120v-6.85714313l120-120c17.14285687-13.71428531 24-37.71428531 27.42857062-58.28571469 0-10.28571469-3.42857156-17.14285687-6.8571422-27.42857156-6.85714313-3.42857156-17.14285687-6.85714313-24-6.85714218h-3.42857155c-24 0-44.57142844 10.28571469-58.28571469 27.42857156l-120 120h-6.85714218l-123.42857158-6.85714313-109.71428624-6.85714312h-3.42857156c-6.85714313 0-13.71428531 3.42857156-17.14285687 6.85714312-10.28571469 10.28571469-34.28571469 30.85714313-37.71428533 34.28571375-3.42857156 3.42857156-3.42857156 6.85714313-6.85714311 10.28571469v3.42857156l3.42857156 3.42857157 3.42857155 3.42857156c6.85714313 3.42857156 106.28571469 41.14285687 161.14285689 58.28571375l24 10.28571469-89.14285687 89.14285687h-89.14285782l-20.57142844 10.28571469c-3.42857156 3.42857156-3.42857156 3.42857156-3.42857156 6.85714218v3.42857157l3.42857156 3.42857156c6.85714313 3.42857156 51.42857156 34.28571469 92.57142844 58.28571469h3.42857156z" fill="#FFFFFF" p-id="2817"></path></svg>