<?xml version="1.0" standalone="no"?><!DOCTYPE svg PUBLIC "-//W3C//DTD SVG 1.1//EN" "http://www.w3.org/Graphics/SVG/1.1/DTD/svg11.dtd"><svg t="1640786252897" class="icon" viewBox="0 0 1024 1024" version="1.1" xmlns="http://www.w3.org/2000/svg" p-id="2378" xmlns:xlink="http://www.w3.org/1999/xlink" width="200" height="200"><defs><style type="text/css"></style></defs><path d="M512 512m-450 0a450 450 0 1 0 900 0 450 450 0 1 0-900 0Z" fill="#8583D8" p-id="2379"></path><path d="M539.38571416 634.85v65.66785752h44.96785752c7.97142832 0 14.97857168 4.88571416 18.09642832 12.08571416l6.62142832 16.52142832a19.41428584 19.41428584 0 0 1-18.09642832 26.67857168h-127.28571416a19.51071416 19.51071416 0 0 1-18.09642832-26.8714292l6.62142832-16.52142832a19.86428584 19.86428584 0 0 1 18.32142832-11.89285664h42.58928584v-65.63571504c-3.76071416-1.44642833-8.22857167-3.98571416-15.75-9.06428496l-59.36785752-39.31071504c-14.97857168-9.96428584-19.83214248-14.01428584-24.525-19.28571416a53.83928584 53.83928584 0 0 1-10.89642832-17.6785708c-2.25-5.85-3.69642832-11.41071416-5.36785664-24.94285752h-9.61071504a88.10357167 88.10357167 0 0 1-86.78571416-72.77142832l-13.05-73.92857168A36.96428584 36.96428584 0 0 1 287 369.86428584c0-25.29642832 20.63571416-45.93214248 46.125-45.93214336h42.10714248L373.78571416 310.56071416a19.44642832 19.44642832 0 0 1 17.35714336-21.40714248c0.54642832-0.19285752 1.31785752-0.19285752 1.9285708-0.19285752L661.43214248 287c10.67142832 0 19.44642832 8.55 19.63928584 19.28571416 0 0.77142833 0 1.54285752-0.19285664 2.12142832l-1.6714292 15.55714336h43.71428584a46.09285752 46.09285752 0 0 1 45.3214292 54.09642832l-13.01785752 73.96071416a88.10357167 88.10357167 0 0 1-86.78571416 72.7714292h-10.76785752c-1.73571416 15.36428584-3.27857168 21.34285752-5.78571416 27.83571415-2.73214248 6.81428584-6.42857168 12.85714248-11.475 18.32142833-5.07857168 5.43214248-10.125 9.51428584-25.90714248 19.25357168l-59.7214292 36.5785708a98.90357168 98.90357168 0 0 1-15.39642832 8.03571504z m121.11428584-136.31785752h7.90714248c29.98928584 0 55.67142833-21.6 60.91071504-51.17142832l13.05-73.92857168c0.19285752-1.18928584 0.38571416-2.37857168 0.38571416-3.53571416a19.92857167 19.92857167 0 0 0-19.83214336-19.83214248h-46.51071416l-15.91071416 148.46785664z m-266.14285752 0l-16.26428496-148.56428496a13.17857168 13.17857168 0 0 1-1.38214336 0.09642832H332.93214248a19.92857167 19.92857167 0 0 0-19.86428496 19.83214248c0 1.15714248 0.19285752 2.34642832 0.38571416 3.53571416l13.05 73.92857168c5.23928584 29.57142832 30.95357167 51.17142832 60.91071416 51.17142832h6.94285664z m136.47857168-142.45714248l-24.10714248 42.81428584-45.5464292 9.32142832 32.11071504 36.225-5.46428584 48.24642832 43.00714248-21.40714248 41.46428584 21.40714248-5.27142832-48.24642832 32.14285664-36.19285664-45.5785708-9.3214292-22.75714336-42.84642832z" fill="#FFFFFF" p-id="2380"></path></svg>