<?xml version="1.0" standalone="no"?><!DOCTYPE svg PUBLIC "-//W3C//DTD SVG 1.1//EN" "http://www.w3.org/Graphics/SVG/1.1/DTD/svg11.dtd"><svg t="1641700290681" class="icon" viewBox="0 0 1024 1024" version="1.1" xmlns="http://www.w3.org/2000/svg" p-id="4435" xmlns:xlink="http://www.w3.org/1999/xlink" width="200" height="200"><defs><style type="text/css"></style></defs><path d="M62 512a450 450 0 1 0 900 0 450 450 0 1 0-900 0z" fill="#8583D8" p-id="4436"></path><path d="M539.386 634.85v65.668h44.968c7.971 0 14.978 4.886 18.096 12.086l6.621 16.521a19.414 19.414 0 0 1-18.096 26.679H463.689a19.51 19.51 0 0 1-18.096-26.872l6.621-16.521a19.864 19.864 0 0 1 18.322-11.893h42.589v-65.636c-3.76-1.446-8.229-3.986-15.75-9.064l-59.368-39.31c-14.978-9.965-19.832-14.015-24.525-19.287a53.84 53.84 0 0 1-10.896-17.678c-2.25-5.85-3.697-11.41-5.368-24.943h-9.61a88.104 88.104 0 0 1-86.787-72.771l-13.05-73.929a36.964 36.964 0 0 1-0.771-8.036c0-25.296 20.636-45.932 46.125-45.932h42.107l-1.446-13.371a19.446 19.446 0 0 1 17.357-21.407c0.546-0.193 1.318-0.193 1.928-0.193L661.432 287c10.672 0 19.447 8.55 19.64 19.286 0 0.771 0 1.543-0.193 2.121l-1.672 15.557h43.714a46.093 46.093 0 0 1 45.322 54.097l-13.018 73.96a88.104 88.104 0 0 1-86.786 72.772h-10.768c-1.735 15.364-3.278 21.343-5.785 27.836-2.732 6.814-6.429 12.857-11.475 18.321-5.079 5.432-10.125 9.514-25.907 19.254l-59.722 36.578a98.904 98.904 0 0 1-15.396 8.036zM660.5 498.532h7.907c29.99 0 55.672-21.6 60.91-51.171l13.05-73.929c0.194-1.19 0.387-2.378 0.387-3.536a19.929 19.929 0 0 0-19.833-19.832h-46.51L660.5 498.532z m-266.143 0l-16.264-148.564a13.179 13.179 0 0 1-1.382 0.096h-43.779a19.929 19.929 0 0 0-19.864 19.832c0 1.158 0.193 2.347 0.386 3.536l13.05 73.929c5.239 29.571 30.953 51.171 60.91 51.171h6.943z m136.479-142.457l-24.107 42.814-45.547 9.322 32.11 36.225-5.463 48.246 43.007-21.407 41.464 21.407-5.271-48.246 32.142-36.193-45.578-9.322-22.757-42.846z" fill="#FFFFFF" p-id="4437"></path></svg>